<?xml version="1.0" standalone="no"?>
<!DOCTYPE svg PUBLIC "-//W3C//DTD SVG 1.1//EN" "http://www.w3.org/Graphics/SVG/1.1/DTD/svg11.dtd" >
<svg xmlns="http://www.w3.org/2000/svg">
<metadata>
This is a custom SVG webfont generated by Font Squirrel.
Copyright   : Copyright c Andrew Paglinawan 2008 All rights reserved
Designer    : Andrew Paglinawan
Foundry     : Andrew Paglinawan
</metadata>
<defs>
<font id="webfontYxy4joi8" horiz-adv-x="1024" >
<font-face units-per-em="2048" ascent="1638" descent="-410" />
<missing-glyph horiz-adv-x="614" />
<glyph />
<glyph />
<glyph unicode=" "  horiz-adv-x="614" />
<glyph unicode="&#x09;" horiz-adv-x="614" />
<glyph unicode="&#xa0;" horiz-adv-x="614" />
<glyph unicode="!" horiz-adv-x="516" d="M193 35l10 49q4 27 28 22q27 -8 23 -30l-10 -49q-4 -23 -25 -23q-4 0 -4 2q-26 4 -22 29zM250 352l186 1065q6 25 31 21q10 -2 17.5 -11.5t2.5 -17.5l-186 -1067q-4 -20 -27 -20h-4q-10 2 -16 11t-4 19z" />
<glyph unicode="&#x22;" horiz-adv-x="839" d="M139 1298v13v6v2q0 92 78 113h6q12 0 13 -13q6 -10 -11 -18q-35 -10 -49 -43q4 2 12 2q23 0 38.5 -14.5t15.5 -35t-16.5 -37t-37.5 -16.5q-37 0 -47 37q-2 0 -2 4zM291 1298v5v8v8q0 92 78 113h6q12 0 12 -13q6 -10 -10 -18q-35 -10 -49 -43q4 2 12 2q23 0 38 -14.5 t15 -35t-16.5 -37t-36.5 -16.5q-37 0 -47 37q-2 0 -2 4z" />
<glyph unicode="#" horiz-adv-x="1705" d="M172 436q6 29 55 29h244l176 524h-246q-16 0 -24 1t-15.5 7.5t-5.5 18.5q4 29 56 28h262l119 359q6 14 9 23.5t10 15.5t19 6q35 0 15 -59l-115 -345h465l119 359q6 14 9 23.5t10 15.5t20 6q35 0 14 -59l-115 -345h226q16 0 24 -1t14.5 -7t4.5 -18q-4 -29 -54 -29h-241 l-176 -524h243q16 0 24.5 -1t14.5 -7t4 -19q-4 -29 -53 -28h-260l-125 -367q0 -2 -2 -8q-10 -37 -35 -37q-35 0 -14 59l119 353h-465l-125 -367q0 -2 -2 -8q-10 -37 -35 -37q-35 0 -14 59l118 353h-227q-16 0 -24.5 1t-15.5 7t-5 18zM528 465h465l176 524h-464z" />
<glyph unicode="$" horiz-adv-x="1366" d="M104 201q-16 16 2 35q18 16 33 2q195 -180 430 -197l121 688q-193 39 -293 117q-127 94 -100 239.5t178.5 248t341.5 112.5l10 55q0 2 2 8l4 19q1 6 7 12t16 6q25 0 16 -45l-10 -55q82 -2 163 -32t125 -58.5t110 -77.5q16 -12 0 -33q-14 -18 -33 -6q-63 49 -106.5 75.5 t-117 54.5t-149.5 30l-111 -631q225 -47 336 -127q133 -100 107 -258q-31 -162 -200 -273.5t-380 -115.5l-8 -49q-8 -45 -33 -45q-12 0 -15 6t-1 16t4 23l8 49q-256 17 -457 207zM344 1085q-20 -119 86 -200q90 -70 270 -109l109 623q-168 -10 -301 -94q-141 -93 -164 -220z M614 41q193 2 344 102q156 100 181 240q23 129 -92 219q-96 74 -312 119z" />
<glyph unicode="%" horiz-adv-x="1705" d="M182 1081l2 4q25 150 133.5 258.5t247.5 108.5q137 0 206 -107.5t44 -254.5v-5q-27 -150 -135.5 -258t-247.5 -108q-137 0 -206 107.5t-44 254.5zM205 35l24 28l1235 1358q14 14 33 15q6 0 6 -6l2 -9q2 -4 -35 -47l-1234 -1356l-7 -6q-6 -4 -12 -4q-28 0 -12 27z M233 1085q-27 -145 36 -243.5t171 -98.5q113 0 206 97.5t118 240.5l2 4q25 145 -37.5 243.5t-171.5 98.5q-111 0 -205 -99t-119 -238v-5zM885 348v4q27 150 135 258.5t248 108.5q137 0 205.5 -107.5t44.5 -255.5l-2 -4q-25 -150 -133.5 -258t-247.5 -108q-137 0 -206 107.5 t-44 254.5zM932 352q-25 -143 38.5 -241.5t172.5 -98.5q111 0 206 97.5t119 238.5v4q25 143 -38.5 241.5t-169.5 98.5q-111 0 -207.5 -99t-118.5 -237z" />
<glyph unicode="&#x26;" horiz-adv-x="1425" d="M100 389q0 41 6 80q23 125 103 229.5t197 165.5q-72 78 -72 189q0 20 4 57q27 137 138.5 232.5t248.5 95.5q123 0 203 -80q80 -76 80 -199q0 -27 -7 -57q-4 -25 -28 -21q-27 4 -23 29q4 18 4 49q0 98 -63.5 162.5t-165.5 64.5q-117 0 -216 -83.5t-120 -200.5 q-4 -33 -4 -49q0 -111 80 -176q23 -14 4 -37h-2l-8 -9q-115 -49 -198 -149t-103 -221q-6 -37 -6 -72q2 -145 95 -238.5t242 -93.5q170 -2 313.5 120t172.5 292q6 37 6 72q0 27 -2 39h-10q-23 2 -68 2q-215 0 -299 -101q-51 -61 -51 -141v-16q4 -25 -23 -29h-4q-20 0 -24 22 q-2 0 -2 23q0 98 63 174q106 121 340 121q23 0 72 -4h12q72 2 120 42t50 132v16q0 25 25 29q10 0 18 -7t8 -18v-20q2 -113 -71 -176q-43 -35 -105 -45q4 -29 4 -43q0 -27 -8 -80q-33 -190 -189.5 -322.5t-347.5 -134.5q-166 0 -280 111q-109 112 -109 274z" />
<glyph unicode="'" horiz-adv-x="471" d="M98 944l148 440q18 53 67 54h39q33 0 27 -35q-4 -12 -21 -49l-196 -412q-20 -37 -43 -37q-33 0 -21 39z" />
<glyph unicode="(" horiz-adv-x="880" d="M145 442q0 137 27 285q57 313 174 498q135 213 334 213q25 0 25 -25q0 -27 -25 -27q-168 0 -291 -190q-115 -182 -166 -479q-27 -160 -26 -275q0 -184 57 -284q63 -100 182 -101q27 0 27 -26.5t-27 -26.5h-2q-150 0 -223 129q-66 108 -66 309z" />
<glyph unicode=")" horiz-adv-x="880" d="M123 30.5q0 26.5 27 26.5q166 0 288 191q113 176 166 479q29 154 29 274q0 182 -60 283q-61 102 -180 102q-27 0 -26 27q0 25 26 25q152 2 225 -127q66 -109 66 -310q0 -129 -29 -284q-53 -309 -172 -498q-139 -215 -333 -215q-27 0 -27 26.5z" />
<glyph unicode="*" horiz-adv-x="880" d="M123 1116q0 29 33 29h229l-137 162q-20 20 8 41q20 18 39 0l135 -162l37 227q4 29 35 29q29 0 24 -29l-37 -227l191 162q20 16 41 0q8 -23 -8 -41l-191 -162h230q27 0 26 -29q-12 -31 -37 -31h-227l137 -159q16 -23 -4 -39q-16 -10 -26 -10q-14 0 -15 10l-139 160 l-37 -230q-4 -31 -33 -31q-31 0 -26 31l37 232l-187 -162q-16 -10 -26 -10q-12 0 -13 10q-23 16 4 39l185 159h-226q-14 0 -20 9.5t-2 21.5z" />
<glyph unicode="+" horiz-adv-x="1269" d="M135 707q6 35 43 34h432l84 435q6 35 45 34q12 0 20.5 -10t6.5 -24l-84 -435h434q12 0 21.5 -10t7.5 -24.5t-16.5 -25.5t-26.5 -11h-434l-84 -432q-8 -37 -41 -37q-16 0 -25.5 10t-5.5 27l84 432h-432q-37 0 -29 37z" />
<glyph unicode="," horiz-adv-x="471" d="M82 -184q4 18 20 26q115 59 123 158q-53 16 -43 72l6 43q4 29 28 48t52.5 19t44 -19.5t11.5 -47.5l-9 -52q-25 -158 -90 -213q-31 -27 -67.5 -46t-51.5 -19q-30 0 -24 31z" />
<glyph unicode="-" horiz-adv-x="835" d="M135 715q0 23 21 22h467q18 0 18 -22q0 -18 -18 -19h-467q-21 1 -21 19z" />
<glyph unicode="." horiz-adv-x="471" d="M168 53q2 29 25.5 49.5t52 20.5t47 -20.5t14.5 -49t-27.5 -49t-52 -20.5t-46 20t-13.5 49z" />
<glyph unicode="/" d="M-6 37l579 1376q4 10 14.5 14.5t18.5 -0.5q25 -8 17 -32l-584 -1379q-4 -16 -23 -16q-8 0 -10 2q-22 10 -12 35z" />
<glyph unicode="0" horiz-adv-x="1454" d="M133 541q0 96 17 180q53 295 228 503t382 210q174 0 280 -158q102 -154 103 -383q0 -80 -17 -182q-53 -295 -229 -502t-381 -209h-2q-174 0 -278 158q-103 150 -103 383zM184 541q0 -217 95 -355q94 -135 237 -135q178 -2 344 194.5t215 475.5q14 84 15 172 q0 213 -93 352q-94 135 -237 135h-4q-178 0 -343 -196.5t-212 -472.5q-17 -94 -17 -170z" />
<glyph unicode="1" horiz-adv-x="686" d="M68 1225q-10 23 10 37l319 170q2 2 4 2l5 2h6h2l2 -2q4 0 6 -2l4 -2l2 -3l4 -4v-2l2 -2q0 -4 2 -6v-6v-2l-243 -1382q-4 -20 -27 -21h-4q-10 2 -16.5 11.5t-4.5 19.5l234 1329l-273 -148q-4 -2 -12 -2q-16 1 -22 13z" />
<glyph unicode="2" horiz-adv-x="1208" d="M98 12q-16 18 4 35l805 629q94 72 144.5 172t50.5 203q0 115 -62 200q-96 131 -276 131q-160 0 -293 -106l-86 -66q-18 -14 -37 4q-14 23 6 37l84 66q150 119 326 119q207 0 317 -154q74 -100 74 -231q0 -115 -57.5 -225.5t-159.5 -190.5l-743 -582h759q27 0 27 -26 q0 -25 -27 -25h-827h-4h-4q-13 0 -21 10z" />
<glyph unicode="3" horiz-adv-x="1249" d="M154 139q-14 18 6 37t39 0q100 -123 276 -123q178 0 324 125q147 125 176 301q33 172 -70 299q-102 123 -276 123q-16 0 -23 12l-2 2q-16 20 6 39l490 426h-633q-10 0 -16.5 8.5t-4.5 18.5q4 27 31 27h694q10 0 16.5 -8.5t4.5 -18.5q0 -4 -4 -12.5t-8 -10.5l-498 -432 q170 -16 266 -137q117 -137 80 -336q-33 -199 -199 -340q-168 -139 -362 -139q-200 0 -313 139z" />
<glyph unicode="4" horiz-adv-x="1359" d="M106 307q-18 18 0 37l1057 1077q2 0 2 2q2 0 2 1t2 1t2 1t3 1q4 0 4 3h6h2l2 -3q4 0 6 -2q2 0 2 -1t2 -1l2 -2l2 -2q2 0 2 -4q0 -2 1 -2t1 -2v-4q2 -2 0 -6l2 -2l-186 -1047h123q27 0 26 -26q0 -25 -26 -25h-131l-49 -285q-6 -20 -27 -20h-4q-10 2 -16.5 11t-4.5 20 l48 274h-832h-2h-2q-11 0 -19 6zM186 352h785l170 973z" />
<glyph unicode="5" horiz-adv-x="1239" d="M133 143q-18 18 4 37q18 18 37 -4q98 -121 274.5 -121t325.5 125q88 78 137.5 178.5t49.5 200.5q0 131 -78 221q-98 123 -273 123q-180 0 -325 -127q-23 -14 -39 4l-6 13v14l180 606q4 12 16 17q6 6 13 6h694q27 0 26.5 -27t-26.5 -27h-676l-154 -518q141 92 297 92 q199 0 316 -141q88 -109 88 -256q0 -115 -53.5 -225.5t-151.5 -194.5q-162 -137 -360 -137h-3q-196 0 -313 141z" />
<glyph unicode="6" horiz-adv-x="1314" d="M131 391v33v4q29 356 215 643q229 352 590 367q27 0 27 -27q4 -23 -25 -27q-330 -10 -547 -342q-100 -150 -158 -348q80 109 199 173.5t248 64.5q172 0 283 -111q113 -109 112 -276q0 -25 -8 -82l-25 4l25 -4q-35 -193 -192.5 -326t-350.5 -133q-172 0 -282 111 q-111 106 -111 276zM182 391q0 -145 95.5 -240.5t246.5 -95.5q172 0 317.5 123t174.5 293q6 39 6 74q0 143 -95.5 238.5t-246.5 97.5h-2q-170 0 -315.5 -123t-174.5 -295q-6 -37 -6 -72z" />
<glyph unicode="7" horiz-adv-x="1202" d="M139 37l801 1341h-754q-27 0 -26.5 27t26.5 27h801l2 -2h4q4 0 4 -3h2l2 -2l5 -4l4 -4q0 -2 2 -4v-6v-2v-2v-4q-2 -2 -2 -6v-2l-828 -1381q-6 -12 -20 -12q-10 0 -15 2q-22 14 -8 37z" />
<glyph unicode="8" horiz-adv-x="1290" d="M113 377q0 41 6 80q29 156 144.5 276.5t268.5 159.5q-33 16 -55 39q-68 68 -67 170q0 16 4 49q20 117 116.5 198t212.5 83q104 0 174 -70t68 -170q0 -33 -4 -49q-14 -84 -70.5 -151.5t-136.5 -102.5q84 -23 156 -90q109 -104 108 -271q0 -41 -6 -79 q-35 -188 -189.5 -319.5t-342.5 -131.5q-166 0 -279 108q-108 105 -108 271zM145 453l25 -4q-6 -37 -6 -72q0 -141 94 -234.5t242 -93.5q168 -2 310 119t171 289q6 37 6 71q0 141 -94 234.5t-242 93.5q-168 2 -310 -119t-171 -288zM438 1147l27 -4q-4 -14 -4 -41 q0 -80 53 -133.5t139 -53.5q96 -2 179 69t100 167q4 29 4 41q-2 82 -54.5 134t-138.5 54q-96 0 -180 -70.5t-98 -166.5z" />
<glyph unicode="9" horiz-adv-x="1314" d="M135 897q0 45 8 80q33 193 191 326t352 135q170 0 283 -113q111 -111 110 -276v-33v-4q-29 -358 -217 -643q-227 -350 -588 -365h-2q-23 0 -26 25q0 27 26 26q332 14 547 342q102 158 158 348q-80 -109 -197.5 -172t-249.5 -65q-168 0 -284 113q-111 110 -111 276z M168 973l27 -4q-6 -37 -7 -72q0 -145 95.5 -240.5t246.5 -95.5q172 -2 316.5 121t175.5 295q6 37 6 72q0 145 -95 240t-247 95q-172 2 -317.5 -120.5t-173.5 -294.5z" />
<glyph unicode=":" horiz-adv-x="491" d="M186 72q4 29 30 50t56 21q29 0 47.5 -21.5t12.5 -49.5q-4 -31 -30 -52.5t-56 -21.5q-29 0 -47.5 21.5t-12.5 52.5zM377 1153q6 31 30.5 52.5t55.5 21.5t48 -21.5t11 -52.5q-4 -29 -29.5 -50.5t-56.5 -21.5q-29 0 -46 21.5t-13 50.5z" />
<glyph unicode=";" horiz-adv-x="491" d="M121 -92q0 27 24 31q68 16 93 73q-12 -6 -23 -6q-33 0 -53.5 24.5t-16.5 59.5q6 35 36 59.5t65 24.5q31 0 50 -18.5t19 -44.5l4 -2l-2 -13l-4 -24q-8 -55 -46 -109.5t-117 -75.5h-9q-20 1 -20 21zM367 1346q8 35 36.5 59.5t65.5 24.5q35 0 54.5 -25t13.5 -59 q-4 -35 -34 -60.5t-67 -25.5q-35 0 -54 24.5t-15 61.5z" />
<glyph unicode="&#x37e;" horiz-adv-x="491" d="M121 -92q0 27 24 31q68 16 93 73q-12 -6 -23 -6q-33 0 -53.5 24.5t-16.5 59.5q6 35 36 59.5t65 24.5q31 0 50 -18.5t19 -44.5l4 -2l-2 -13l-4 -24q-8 -55 -46 -109.5t-117 -75.5h-9q-20 1 -20 21zM367 1346q8 35 36.5 59.5t65.5 24.5q35 0 54.5 -25t13.5 -59 q-4 -35 -34 -60.5t-67 -25.5q-35 0 -54 24.5t-15 61.5z" />
<glyph unicode="&#x3c;" horiz-adv-x="1269" d="M123 717v4v2q2 2 2 4t2 4q0 2 1 2t1 2l2 2q0 4 2 4l803 686q23 20 43 -4t-4 -43l-778 -665l540 -664q18 -25 -4 -43q-8 -8 -20.5 -8t-22.5 12l-561 686l-4 9v2q-2 2 -2 8z" />
<glyph unicode="=" horiz-adv-x="1269" d="M162 393q0 25 28 25h713q29 0 29 -25q0 -12 -9.5 -20t-19.5 -8h-713q-28 -1 -28 28zM238 821q0 27 28 27h711q31 0 31 -27q0 -25 -31 -24h-711q-28 -1 -28 24z" />
<glyph unicode="&#x3e;" horiz-adv-x="1269" d="M195 16q-20 20 2 43l780 666l-543 664q-20 25 6 43q20 18 43 -5l559 -686l5 -8l2 -2v-6v-6v-4q-2 -2 -2 -6l-3 -2v-2l-6 -7l-800 -686q-12 -8 -21 -8q-16 0 -22 12z" />
<glyph unicode="?" horiz-adv-x="1093" d="M84 1221q74 98 182.5 155.5t225.5 57.5q160 0 264 -105q102 -102 102 -258q0 -35 -6 -76q-31 -172 -170 -294.5t-313 -131.5l-45 -254q-4 -20 -25 -20h-4q-25 4 -19 29l46 264q2 2 2 4q0 25 24 24q160 0 293 115t162 275q6 35 6 65q0 135 -88 223t-229 90 q-104 0 -203 -53t-166 -141q-16 -20 -35 -4q-18 15 -4 35zM223 29l8 47q2 10 11.5 15t17.5 3q25 -4 21 -26l-9 -48q-4 -20 -24 -20h-4q-25 4 -21 29z" />
<glyph unicode="@" horiz-adv-x="2007" d="M178 717q35 195 160 359.5t307 261t377 96.5q297 0 470 -210t120 -507q-31 -176 -137 -328l-9 -8q-6 -10 -17 -23.5t-30.5 -31t-40 -31.5t-48 -28.5t-56.5 -20.5q-18 -6 -37 -6q-63 0 -88 47q-20 39 -14 84v2l26 151q-61 -82 -149 -130t-183 -48q-145 0 -228 108.5 t-56 262.5q29 154 149.5 262t266.5 108q147 0 230 -108.5t56 -261.5q-4 -12 -4 -21v-4l-57 -315h2q-8 -33 8 -58q16 -27 49 -26q16 0 27 2q80 18 149 104l13 15q100 141 127 303q47 274 -113 468.5t-434 196.5q-276 -2 -504.5 -196.5t-278 -469t111.5 -469t435 -196.5 q76 0 168 21q25 6 29 -19q0 -25 -25 -30q-94 -23 -180 -23q-297 0 -471 210t-121 507zM596 717q-23 -133 49 -226.5t195 -93.5t227 93.5t127 226.5q25 133 -47 226t-195 93t-227 -93t-129 -226z" />
<glyph unicode="A" horiz-adv-x="1323" d="M121 37l762 1382q8 13 20 13h6q3 1 6 0q16 0 21 -21l274 -1380q4 -27 -20 -31h-4q-23 0 -27 20l-72 365h-716l-205 -373q-10 -12 -23 -12q-10 0 -14 2q-14 9 -14 20q0 7 6 15zM399 436h678l-180 901z" />
<glyph unicode="B" horiz-adv-x="1216" d="M215 25l244 1382q4 25 28 20l2 3h324q131 0 211 -84q82 -82 82 -205q0 -18 -4 -60q-18 -96 -79.5 -175t-150.5 -122q96 -20 166 -88q94 -94 95 -237q0 -33 -7 -70q-29 -164 -164 -278.5t-298 -114.5h-418h-2h-4h-4q-25 4 -21 29zM270 47h394q143 0 265 103.5t146 246.5 q6 31 6 62q-2 123 -80.5 201.5t-205.5 78.5h-402zM403 795h299h6q118 0 218 86q102 88 125 209q4 37 4 51q-2 102 -68.5 168.5t-173.5 66.5h-307z" />
<glyph unicode="C" horiz-adv-x="1472" d="M150 594q0 70 10 123q51 295 302 502.5t556 210.5q258 0 432 -158q11 -10 11 -20q0 -9 -9 -17q-16 -20 -37 -2q-156 143 -397 143h-6q-281 0 -516 -195q-238 -198 -285 -474q-10 -61 -10 -113q0 -236 160.5 -391.5t412.5 -155.5q242 0 453 146q20 14 37 -7q14 -23 -9 -36 q-225 -154 -481 -154q-270 0 -450 170q-174 170 -174 428z" />
<glyph unicode="D" horiz-adv-x="1472" d="M217 25l242 1382q6 20 26 20q0 2 2 3h275q260 0 436 -173q170 -170 170 -423q0 -63 -12 -127q-53 -295 -297 -503t-541 -208h-274h-2h-4q-10 2 -18 10q-5 5 -4 11q0 4 1 8zM272 47h246q274 0 506.5 196.5t280.5 473.5q10 49 10 117q0 233 -154.5 387.5t-398.5 154.5h-254 z" />
<glyph unicode="E" horiz-adv-x="1214" d="M215 31l244 1382q4 25 28 21q0 2 2 2h760q27 0 27 -27t-27 -27h-743l-113 -639h645q27 0 27 -24q0 -27 -27 -27h-653l-113 -639h734q27 0 26 -26q0 -25 -26 -25h-760h-2h-2h-6q-25 4 -21 29z" />
<glyph unicode="F" horiz-adv-x="1228" d="M215 27l244 1382q6 25 28 21l2 2h760q27 0 27 -27t-27 -27h-741l-113 -639h645q25 0 25 -24q0 -27 -25 -27h-655l-119 -670q-4 -20 -24 -20h-4q-27 4 -23 29z" />
<glyph unicode="G" horiz-adv-x="1638" d="M150 598q0 57 12 123q35 195 161 358.5t310 259t385 95.5q256 0 434 -158q10 -10 10 -20q0 -9 -8 -17q-20 -18 -37 -2q-160 143 -399 143h-6q-281 0 -515 -195q-237 -198 -284 -474q-10 -47 -10 -113q0 -236 159.5 -391.5t411.5 -155.5q238 0 447 142l82 466h-424 q-25 0 -25 25q0 27 25 27h450h2h6q27 -4 23 -31l-90 -506q0 -2 -4 -10t-9 -10q-225 -154 -483 -154q-272 0 -448 170q-176 172 -176 428z" />
<glyph unicode="H" horiz-adv-x="1556" d="M215 29l244 1382q4 21 22 21h6q27 -4 23 -31l-117 -660h809l4 -2l119 672q4 21 24 21h7q25 -4 20 -31l-243 -1381q-4 -23 -27 -22h-4q-25 6 -21 31l117 659h-815l-117 -668q-4 -23 -26 -22h-4q-25 6 -21 31z" />
<glyph unicode="I" horiz-adv-x="624" d="M229 29l244 1382q4 21 22 21h7q27 -4 22 -31l-243 -1381q-4 -23 -27 -22h-4q-25 6 -21 31z" />
<glyph unicode="J" horiz-adv-x="1216" d="M88 343q0 20 23 24q25 4 28 -23q18 -129 113.5 -210t236.5 -81h6q173 0 320 125q150 127 180 305l164 930q4 21 24 21h7q25 -4 20 -31l-163 -930q-35 -197 -197 -334t-361 -139h-2q-158 0 -268 95q-57 49 -94 114.5t-37 133.5z" />
<glyph unicode="K" horiz-adv-x="1464" d="M215 33l244 1382q5 21 24 21h6q10 -2 16.5 -11.5t4.5 -19.5l-162 -920l1110 945q10 9 19 8q10 0 18 -11q9 -10 9 -18q0 -10 -11 -18l-694 -590l491 -758q12 -23 -8 -37q-8 -4 -14 -4q-14 0 -23 12l-487 752l-416 -352l-6 -6l-70 -383q-4 -23 -24 -23h-4q-27 8 -23 31z " />
<glyph unicode="L" horiz-adv-x="1267" d="M215 35l244 1382q4 21 23 21h7q25 -4 21 -31l-238 -1352h734q27 0 26 -24q0 -27 -26 -27h-760h-2h-2h-4q-27 8 -23 31z" />
<glyph unicode="M" horiz-adv-x="1777" d="M215 27l244 1382q6 20 26 21h4q16 0 23 -13l414 -762l686 766q8 8 22 9h6q25 -4 21 -31l-244 -1381q-4 -23 -24 -22h-7q-25 6 -20 31l229 1298l-651 -727q-8 -8 -20 -8h-2h-4q-16 0 -23 12l-395 729l-234 -1313q-4 -23 -24 -22h-4q-27 8 -23 31z" />
<glyph unicode="N" horiz-adv-x="1617" d="M217 35l242 1374q0 2 2 4q0 12 12 23q9 4 16 4q13 0 19 -15l717 -1319l229 1303q6 25 31 21q10 -2 16 -11.5t4 -17.5l-241 -1374q-4 -23 -25 -23h-6q-10 2 -19 14l-2 2q0 4 -2 5l-712 1310l-232 -1308q-4 -23 -24 -23h-4q-22 7 -22 23q0 4 1 8z" />
<glyph unicode="O" horiz-adv-x="1740" d="M150 588q0 63 12 131q53 297 285.5 505t510.5 208q250 0 408 -170q158 -164 158 -418q0 -78 -11 -133q-53 -295 -285.5 -503t-512.5 -210q-248 0 -408 170q-157 164 -157 420zM201 588q2 -233 145 -385t369 -154q258 0 478 196.5t269 473.5q10 72 11 125 q0 231 -144.5 382.5t-370.5 153.5h-2q-258 0 -477 -196.5t-266 -472.5q-12 -64 -12 -123z" />
<glyph unicode="P" horiz-adv-x="1193" d="M217 35l244 1380q4 25 24 21l2 2h418q143 0 244 -97q94 -94 94 -237q0 -33 -6 -70q-29 -164 -164 -278.5t-299 -114.5h-399l-107 -616q-6 -20 -26 -21h-4q-10 2 -16.5 11.5t-4.5 19.5zM385 692h389q143 0 265 103.5t147 246.5q6 35 6 62q-2 123 -81 201.5t-206 78.5h-397 z" />
<glyph unicode="Q" horiz-adv-x="1728" d="M205 723q53 303 291.5 517t523.5 214q283 0 445 -214q124 -163 124 -377q0 -67 -12 -140q-39 -221 -189.5 -402.5t-353.5 -267.5l-323 -137q119 0 202 -55q170 -115 314 -115q150 0 305 115q25 12 39 -6q6 -23 -12 -39q-176 -121 -340 -121q-160 0 -340 119 q-76 51 -179 51q-106 0 -202 -45l-21 -6q-16 -10 -26 2q-6 2 -11 12q-4 31 19 37l319 135h-16q-285 0 -448 212q-123 160 -122 369q0 68 13 142zM256 723q-11 -66 -11 -128q0 -197 114 -347q151 -197 413 -197q260 0 480.5 196.5t273.5 475.5q11 67 11 130q0 200 -115 349 q-151 197 -412.5 197t-482 -196.5t-271.5 -479.5z" />
<glyph unicode="R" horiz-adv-x="1280" d="M186 33l244 1380q4 23 27 23h2h415q147 0 244 -97q96 -92 96 -237q0 -33 -6 -70q-25 -133 -123 -238.5t-229 -140.5q14 -6 47 -22q158 -98 158 -262q0 -29 -6 -64q-14 -80 -15 -135q0 -59 17 -86q6 -8 14 -8h4q23 8 31 -18.5t-16 -32.5h-7q-6 -2 -12 -2q-33 0 -55 30 q-27 35 -27 117q0 59 15 143q4 20 4 56q0 109 -82 180q-55 49 -144 78l-28 8l-13 4h-395l-108 -616q-4 -20 -25 -21h-6q-25 4 -21 31zM354 690h389q145 0 267.5 103.5t146.5 246.5q4 23 4 62q0 123 -80 201.5t-207 78.5h-397z" />
<glyph unicode="S" horiz-adv-x="1366" d="M141 203q-7 7 -6 14q0 9 8 19q16 16 33 4q82 -80 202 -137.5t255 -57.5q199 0 352 100q154 98 178 236q3 20 3 39q0 104 -95 178q-111 82 -323 121l-5 2q-213 41 -313 119q-103 78 -103 187q0 23 5 48q27 150 185.5 253.5t354.5 103.5q86 0 169 -29t129.5 -58.5 t111.5 -78.5q10 -5 10 -14q0 -7 -8 -17q-18 -18 -35 -8q-66 49 -108.5 76.5t-119.5 55t-157 27.5q-178 0 -323 -94q-141 -92 -162 -217q-3 -20 -4 -38q0 -93 86 -158q96 -74 299 -113l4 -2q225 -43 340 -129q110 -79 109 -200q0 -26 -5 -54q-31 -162 -200.5 -272.5 t-382.5 -110.5q-265 0 -484 205z" />
<glyph unicode="T" horiz-adv-x="1327" d="M102 1400.5q0 26.5 25 26.5h999q25 0 25 -26.5t-25 -26.5h-477l-239 -1360q-6 -20 -27 -20h-4q-10 2 -16.5 11t-4.5 20l238 1349h-469q-25 0 -25 26.5z" />
<glyph unicode="U" horiz-adv-x="1667" d="M215 473q0 57 8 100l148 834q4 23 24 23h6q25 -8 21 -31l-148 -834q-8 -41 -8 -92q2 -184 123 -304t311 -122q217 0 399.5 154.5t219.5 371.5l147 834q4 23 24 23h7q25 -6 21 -31l-148 -834q-41 -238 -236.5 -403.5t-433.5 -165.5q-213 0 -350 137q-135 135 -135 340z " />
<glyph unicode="V" horiz-adv-x="1536" d="M117 1403q-4 27 20 31q5 1 9 1q16 0 22 -20l324 -1321l792 1329q9 14 21 14q8 0 16 -5q14 -9 14 -20q0 -7 -6 -15l-825 -1383l-6 -6l-2 -2l-9 -4h-6h-8l-2 2q-2 0 -2 2h-2l-6 6q-4 4 -4 8z" />
<glyph unicode="W" horiz-adv-x="2256" d="M125 1401q-4 27 18 31q6 2 11 1q16 0 22 -20l324 -1321l571 959q10 16 27 12q20 4 28 -19l232 -952l794 1329q7 15 19 15q7 0 16 -6q14 -9 14 -20q0 -7 -6 -15l-825 -1383l-6 -6v-2q-2 0 -5 -2t-5 -2h-6h-7q-2 2 -4 2t-2 2h-2q-4 4 -4 6h-2q-4 4 -4 8l-236 959l-575 -965 l-6 -6l-2 -2l-4 -2l-4 -2h-7h-2h-6l-2 2q-2 0 -4 2l-6 6h-2q0 4 -4 8z" />
<glyph unicode="X" horiz-adv-x="1478" d="M160 2q-9 9 -9 18.5t9 18.5l612 678l-373 674q-14 23 11 34q8 5 15 6q12 0 19 -16l365 -659l604 665q8 9 18 9q9 0 19 -7q9 -9 9 -18t-9 -19l-614 -677l374 -674q14 -20 -10 -37q-4 -2 -12 -2q-16 0 -23 12l-366 660l-602 -664q-6 -8 -19 -8q-10 0 -18 6z" />
<glyph unicode="Y" horiz-adv-x="1236" d="M119 1391q-5 8 -5 15q0 12 15 19q9 6 17 7q12 0 18 -17l368 -663l609 669q10 10 19 10l18 -8q10 -10 9 -19q0 -9 -7 -18l-627 -692h-2l-119 -678q-4 -20 -24 -20h-7q-25 4 -20 31l119 675z" />
<glyph unicode="Z" horiz-adv-x="1366" d="M145 18v7v4q0 4 2 6l3 4l2 4l1214 1337h-952q-25 0 -25 27t25 27h1009q4 0 4 -2h7l4 -2q2 -2 4 -3v-2l4 -4v-2l2 -2v-4q2 -2 2 -6v-4q0 -2 -2 -4q0 -2 -2 -2v-4l-2 -2l-1215 -1340h953q25 0 24 -26q0 -25 -24 -25h-1012q-6 0 -8 2q-2 0 -4 2q-2 0 -2 1t-2 1l-4 4l-3 4 q0 4 -2 4z" />
<glyph unicode="[" horiz-adv-x="880" d="M205 -213l282 1593q2 20 20.5 37t41.5 17h475q16 0 25.5 -7.5t7.5 -21.5q-4 -20 -41 -21h-477l-283 -1601h477q16 0 25.5 -6t7.5 -21q-4 -23 -41 -22h-475q-20 0 -34.5 15t-10.5 38z" />
<glyph unicode="\" d="M23 1397q-8 25 16 33q8 4 18.5 -0.5t14.5 -14.5l579 -1376q10 -25 -12 -35q-2 -2 -10 -2q-18 0 -23 16z" />
<glyph unicode="]" horiz-adv-x="880" d="M115 -238q4 20 41 21h477l282 1601h-477q-16 0 -25.5 6.5t-6.5 20.5q4 23 40 23h476q20 0 34.5 -15.5t10.5 -38.5l-283 -1593q-2 -20 -20.5 -36.5t-40.5 -16.5h-476q-16 0 -25 7t-7 21z" />
<glyph unicode="_" horiz-adv-x="1228" d="M-43 -293q6 35 51 35h684q20 0 30.5 -8t8.5 -27q-8 -35 -53 -35h-684q-20 0 -30.5 8.5t-6.5 26.5z" />
<glyph unicode="`" d="M340 1450q0 2 2 11t9 14.5t26 5.5q33 0 57 -37l127 -191q8 -12 8 -22q0 -14 -14 -6q-33 12 -49 30l-146 158q-26 27 -20 37z" />
<glyph unicode="a" horiz-adv-x="1267" d="M82 414q0 51 8 94q37 205 198 348t355 143q6 0 11 1q165 0 274 -119q61 -63 88 -156l47 254q3 22 20 22q4 0 9 -2q25 -4 20 -28l-84 -473l-82 -471q-4 -20 -24 -21h-4q-27 4 -21 29l41 237q-80 -121 -204 -193.5t-259 -74.5q-174 0 -282 121q-111 115 -111 289zM133 414 q2 -156 96.5 -256.5t245.5 -100.5h5q171 0 318 131q148 133 181 320q6 43 6 84q0 156 -95 256t-247 100h-2q-172 0 -319.5 -132t-180.5 -318q-8 -39 -8 -84z" />
<glyph unicode="b" horiz-adv-x="1351" d="M195 29l81 475l164 909q5 21 24 21h7q27 -4 21 -29l-121 -674q84 123 210 196.5t265 76.5q178 0 295 -123q115 -115 114 -293q0 -33 -8 -94l-26 6l26 -6q-37 -205 -201.5 -349.5t-367.5 -146.5q-178 0 -293 121q-63 63 -96 157l-45 -256q-4 -20 -25 -20h-4q-22 3 -22 20 q1 4 2 9zM322 414q2 -158 101 -260.5t255 -102.5h5q175 0 327 132q154 134 186 321q6 43 6 84q0 156 -99 258t-257 102h-2q-178 0 -330 -133t-184 -321q-8 -35 -8 -80z" />
<glyph unicode="c" horiz-adv-x="1169" d="M119 418q0 41 6 86q39 207 213 351t387 144h6q172 0 297 -110q11 -9 11 -18q0 -8 -9 -17q-18 -18 -37 -2q-109 96 -268 96h-6q-189 0 -348 -132q-162 -134 -195 -322q-6 -37 -6 -76q0 -160 108.5 -264.5t278.5 -104.5q164 0 307 98q20 14 37 -6q14 -23 -8 -37 q-158 -109 -336 -108q-190 0 -315 121q-123 119 -123 301z" />
<glyph unicode="d" horiz-adv-x="1351" d="M123 412q0 31 8 92q37 207 204 352t370 148q176 0 292 -123q66 -63 95 -158l127 690q4 21 23 21h7q25 -4 21 -29l-250 -1389q-4 -20 -25 -20h-6q-25 4 -20 29l41 241q-80 -123 -208 -196.5t-267 -75.5q-180 0 -297 121q-115 119 -115 297zM176 412q0 -158 100.5 -261.5 t258.5 -103.5h5q175 0 325 133q153 135 188 324q8 35 8 82q-2 158 -100.5 260t-255.5 102h-6q-179 0 -330 -132q-154 -134 -187 -322q-6 -39 -6 -82z" />
<glyph unicode="e" horiz-adv-x="1247" d="M119 416q0 51 8 90q37 207 203 351t364 144q3 0 6 1q174 0 287 -119q115 -115 115 -295q0 -37 -2 -56l-2 -4v-4q-8 -18 -25 -18h-893q-2 -4 -2 -10q-8 -33 -8 -80q0 -158 100.5 -260.5t257.5 -102.5q111 0 217.5 55.5t182.5 149.5q14 18 37 4q18 -18 4 -37 q-182 -221 -441 -225q-180 0 -295 121q-114 115 -114 295zM193 557h856q2 10 2 31q0 158 -99.5 260t-257.5 102h-6q-161 0 -301 -111q-143 -114 -194 -282z" />
<glyph unicode="f" horiz-adv-x="741" d="M166 1010h164l24 135q27 154 101 223q72 66 200 66q27 0 23 -25q-8 -27 -31 -27q-106 0 -160 -49q-57 -53 -79 -188l-25 -135h172q10 0 16.5 -8.5t3.5 -18.5q-4 -27 -30 -27h-172l-164 -929q-4 -27 -31 -27q-25 0 -20 27l164 929h-164q-23 0 -23 20q0 34 31 34z" />
<glyph unicode="g" horiz-adv-x="1351" d="M133 504q37 205 198 350t357 147q174 0 285 -120q63 -66 92 -156l45 254q2 10 11 16t20 4q25 -4 20 -28l-84 -475v-2l-80 -443q-35 -195 -195.5 -332t-355.5 -137q-111 0 -198 49q-25 12 -10 35q10 23 34 10q82 -43 174 -43q176 0 322.5 125t177.5 301l37 209 q-82 -123 -205 -195.5t-258 -72.5h-5q-162 0 -279 117q-111 119 -111 286q0 58 8 101zM176 410q0 -156 96.5 -257.5t247.5 -101.5h5q171 0 318 131q148 133 183 322q6 43 6 84q0 156 -96 258t-248 102h-2q-174 0 -321.5 -133t-180.5 -321q-8 -39 -8 -84z" />
<glyph unicode="h" horiz-adv-x="1255" d="M193 27l102 575l141 807q4 21 24 21h7q25 -4 20 -31l-104 -598q70 92 172 147.5t213 55.5q152 0 250 -99q96 -92 96 -241q0 -35 -6 -72l-102 -574q-4 -23 -25 -22h-6q-25 4 -21 31l103 575q6 31 6 62q-2 125 -84 205.5t-211 82.5q-147 0 -272 -106.5t-150 -253.5 l-102 -574v-4l-2 -2q0 -4 -2 -4q0 -2 -2 -2q0 -4 -5 -4l-2 -2q-2 -2 -6 -2q-2 -2 -4 -2h-2h-6q-24 4 -20 31z" />
<glyph unicode="i" horiz-adv-x="575" d="M195 31l165 954q8 27 31 19q27 -4 21 -29l-166 -955q-4 -20 -25 -20h-6q-24 8 -20 31zM408 1243l10 49q4 21 23 21h8q25 -4 20 -31l-10 -49q-4 -20 -25 -21h-6q-24 4 -20 31z" />
<glyph unicode="j" horiz-adv-x="509" d="M-10 -375q0 10 8 19.5t18 9.5h5q38 0 73 30q37 32 45 72l215 1227q6 25 29 21q27 -4 23 -31l-220 -1223q-10 -61 -60 -104t-110 -43q-26 -1 -26 22zM406 1241l10 45q0 10 10 18q8 6 16 5h4q23 -4 19 -29l-10 -49q0 -20 -23 -21h-8q-22 4 -18 31z" />
<glyph unicode="k" horiz-adv-x="1146" d="M193 37l243 1382q4 21 22 21h7q27 -4 22 -31l-186 -1055l772 658q16 16 37 -2q9 -10 9 -19q0 -10 -11 -18l-494 -420l328 -506q14 -20 -6 -37q-12 -4 -14 -4q-16 0 -23 12l-326 502l-278 -237q-4 -4 -8 -4l-43 -250q-4 -23 -27 -23h-4q-24 4 -20 31z" />
<glyph unicode="l" horiz-adv-x="509" d="M209 29l244 1382q4 21 22 21h6q27 -4 23 -31l-244 -1381q-4 -23 -27 -22h-4q-10 2 -16 11.5t-4 19.5z" />
<glyph unicode="m" horiz-adv-x="1947" d="M193 31l102 573v2l65 375q5 21 25 21q3 0 6 -1q25 -4 21 -30l-31 -168q70 90 172 144t211 54q147 0 248 -96q66 -72 86 -162q63 115 177 186.5t243 71.5q145 0 245 -96q96 -96 97 -239q0 -33 -7 -70l-100 -576q-4 -20 -27 -20h-4q-25 4 -20 31l100 573q6 35 6 62 q0 123 -80.5 202.5t-209.5 81.5q-145 0 -268.5 -102.5t-149.5 -245.5q0 -4 -2 -6l-99 -576q-2 -14 -18 -18q-2 -2 -4 -2h-2h-6q-25 4 -21 31l99 573q2 2 2 6q4 18 4 56q0 125 -80 203.5t-209 80.5q-145 0 -268 -103.5t-150 -248.5l-102 -578q0 -4 -4 -8v-2q-4 -4 -7 -4 l-2 -2q-2 -2 -6 -2q0 -2 -4 -2h-2h-4q-26 4 -22 31z" />
<glyph unicode="n" horiz-adv-x="1255" d="M193 27l102 577v2l65 375q4 21 24 21q3 0 7 -1q25 -4 21 -30l-31 -168q70 90 172 144t215 54q143 0 246 -96q94 -94 94 -241q0 -31 -6 -68l-98 -580q-4 -20 -29 -20h-4q-25 4 -21 31l103 577q6 31 6 60q0 125 -82 204.5t-209 81.5q-150 0 -273.5 -104.5t-150.5 -249.5 l-100 -580q0 -4 -4 -8q0 -2 -2 -2q0 -4 -5 -4l-2 -2q-2 -2 -6 -2q-2 -2 -4 -2h-4h-4q-24 4 -20 31z" />
<glyph unicode="o" horiz-adv-x="1280" d="M143 414q0 51 9 92q37 207 198.5 352.5t358.5 145.5q174 0 286 -119q111 -117 111 -295q0 -51 -8 -92l-25 4l25 -4q-37 -207 -199 -351.5t-358 -146.5q-174 0 -287 119q-111 121 -111 295zM195 414q0 -158 96 -259.5t250 -103.5q174 0 323.5 134t182.5 321q8 39 8 84 q-2 158 -98.5 260t-247.5 102h-2q-174 0 -322.5 -134t-181.5 -320q-8 -39 -8 -84z" />
<glyph unicode="p" horiz-adv-x="1351" d="M193 -410l161 920v2l82 469q4 21 24 21q3 0 7 -1q27 -4 22 -30l-43 -236q82 121 208 193.5t264 72.5q178 0 292 -118q113 -119 113 -291q0 -29 -8 -90q-37 -205 -202 -348.5t-363 -145.5q-174 0 -291 121q-63 63 -92 156l-123 -703q-4 -23 -27 -22l-4 2q-24 3 -20 28z M397 422q2 -156 100.5 -258.5t252.5 -102.5h5q175 0 324 130q152 132 185 319q6 43 6 82q0 156 -98.5 256t-253.5 100h-3q-178 0 -328.5 -131t-180.5 -315q-9 -35 -9 -80z" />
<glyph unicode="q" horiz-adv-x="1351" d="M123 418q0 47 6 90q37 205 202 348t363 143q178 0 289 -116q63 -61 94 -158l45 254q4 21 24 21q3 0 7 -1q25 -4 21 -28l-82 -471h-2l-162 -920q-4 -23 -27 -22l-4 2q-25 4 -20 28l118 686q-80 -121 -204.5 -194.5t-264.5 -73.5q-176 0 -290 121q-113 117 -113 291z M156 504l24 -4q-6 -41 -6 -82q0 -154 99.5 -256.5t252.5 -102.5h6q175 0 323 130q151 132 185 319q6 43 7 82q0 156 -99.5 257t-253.5 101h-5q-175 0 -324 -131q-152 -133 -185 -317z" />
<glyph unicode="r" horiz-adv-x="899" d="M193 27l167 952q4 23 24 23q3 0 7 -1q25 -6 21 -30l-58 -326q39 57 80 109q205 248 440 247q27 0 27 -26q0 -25 -27 -25q-88 0 -173 -40t-150.5 -106.5t-109.5 -123.5t-79 -119l-34 -69l-84 -474q-4 -20 -25 -20h-6q-24 4 -20 29z" />
<glyph unicode="s" horiz-adv-x="1007" d="M115 145q-9 7 -9 15q0 9 11 20q23 23 37 4q135 -131 307 -131q133 0 233 68q100 63 117 155q2 13 2 26q0 65 -61 112q-70 53 -220 82h-2q-147 31 -217 84q-73 53 -73 132q0 18 4 38q20 109 131.5 181.5t249.5 72.5q59 0 117.5 -20.5t87.5 -40.5l79 -54q11 -9 11 -18 q0 -8 -9 -17q-18 -23 -37 -8q-45 33 -74.5 51t-80.5 36.5t-105 18.5q-117 0 -213 -61q-94 -61 -106 -141q-3 -13 -3 -25q0 -57 56 -102q63 -49 199 -76h4q164 -35 237 -90q77 -61 78 -144q0 -18 -4 -37q-20 -117 -141 -195.5t-268 -78.5q-186 0 -338 143z" />
<glyph unicode="t" horiz-adv-x="819" d="M119 1004h172l71 407q4 25 31 25q25 0 21 -25l-70 -407h164q27 0 22 -25q-8 -27 -30 -27h-166l-141 -792l-2 -18q0 -34 20 -57q25 -30 70 -30q25 0 20.5 -26.5t-31.5 -26.5q-66 0 -102 46q-29 36 -29 84q0 13 2 28l142 792h-172q-10 0 -17 9q-5 6 -4 13q0 30 29 30z" />
<glyph unicode="u" horiz-adv-x="1255" d="M170 336q0 39 8 72l101 571q4 23 24 23q3 0 6 -1q25 -8 21 -30l-103 -572q-4 -23 -4 -63q0 -125 81 -205t210 -80h6q142 0 262 104q123 105 148 253l102 571q4 23 23 23q3 0 6 -1q27 -8 22 -30l-102 -572q-29 -166 -165 -282.5t-302 -116.5q-154 0 -246 96 q-98 99 -98 240z" />
<glyph unicode="v" horiz-adv-x="1191" d="M111 969q-4 27 20 30q5 2 10 2q15 0 21 -20l217 -887l532 895q9 13 21 13q7 0 16 -5q14 -9 14 -19q0 -7 -6 -15l-565 -949l-6 -6v-2q-8 -4 -10 -4h-6h-7q-2 0 -2 1t-2 1t-2 2t-2 2t-4 2l-2 2l-2 4l-2 4z" />
<glyph unicode="w" horiz-adv-x="1763" d="M121 967q-4 27 20 30q5 2 10 2q15 0 21 -20l217 -891l385 643q10 16 27 12q23 0 24 -18l158 -637l537 899q7 15 18 15q7 0 16 -7q14 -9 14 -19q0 -7 -5 -15l-570 -953q0 -4 -6 -6v-2l-8 -4h-6h-2h-6l-2 2q-2 0 -5 2l-2 2q-2 2 -4 2q0 2 -2 2q0 2 -2 4l-2 4l-155 643 l-390 -649l-6 -6v-2l-8 -4h-2h-6h-6q-2 2 -4 2t-2 2l-7 6h-2q-2 2 -2 4t-2 4z" />
<glyph unicode="x" horiz-adv-x="1167" d="M145 43l420 459l-252 459q-14 23 11 34q7 4 12 5q11 0 22 -15l244 -444l404 450q10 10 19 10l17 -8q10 -10 10 -19t-8 -18l-415 -458l252 -461q10 -20 -11 -35q-4 -2 -12 -2q-16 0 -22 12l-244 445l-408 -449q-6 -8 -18 -8q-10 0 -19 6q-10 10 -9 20q-1 8 7 17z" />
<glyph unicode="y" horiz-adv-x="1204" d="M113 -332q10 23 34 10q78 -43 177 -43h5q173 0 318 124q147 126 176 302l27 142q-68 -92 -169 -146.5t-214 -56.5q-145 0 -244 98q-98 94 -98 240q0 37 8 70l100 573q5 21 25 21q3 0 6 -1q25 -4 21 -28l-101 -574q-6 -35 -6 -61q0 -125 81 -205t208 -80h5q142 0 264 104 q124 105 149 251l55 305l47 268q5 21 23 21q3 0 6 -1q10 -2 17 -11q5 -6 5 -11q0 -3 -2 -6l-100 -574l-62 -346q-35 -197 -194.5 -333t-355.5 -138q-106 0 -201 49q-14 10 -14 23q1 6 4 14z" />
<glyph unicode="z" horiz-adv-x="1134" d="M125 23q0 2 1 2t1 2v6l4 4q0 2 2 4l825 911h-639q-27 0 -26 25q0 27 26 27h699l4 -3h4q2 0 6 -4h2v-2q4 0 4 -4l2 -2v-2q2 0 2 -4v-4v-2v-4q0 -2 -2 -4v-2l-2 -4l-2 -2l-827 -912h641q25 0 24 -26q0 -25 -24 -25h-698q-6 0 -11 2q-2 0 -2 2q-4 0 -4 2h-2l-2 4l-2 4 q-2 2 -2 4v7h-2z" />
<glyph unicode="{" horiz-adv-x="983" d="M117 557q6 39 55 39q150 0 216.5 64.5t88.5 195.5l29 162q20 115 62 187.5t144.5 132t276.5 92.5q14 2 22.5 2t14.5 -4.5t4 -16.5q-4 -18 -31 -27q-225 -57 -317 -140t-119 -238l-28 -154q-23 -129 -88.5 -195.5t-176.5 -99.5q104 -37 144.5 -101.5t17.5 -193.5l-29 -153 q-27 -158 36 -240t270 -139q23 -10 18 -29q-4 -25 -45 -16q-236 49 -303.5 144t-36.5 267l29 162q23 131 -19.5 195.5t-191.5 64.5q-49 0 -43 39z" />
<glyph unicode="|" horiz-adv-x="585" d="M252 -229l321 1822q4 16 6.5 23.5t9.5 14.5t19 7q35 0 25 -45l-322 -1822q-8 -45 -39 -45q-28 0 -20 45z" />
<glyph unicode="}" horiz-adv-x="983" d="M113 -299q4 18 30 27q225 57 317.5 140t119.5 238l28 154q23 129 88.5 195.5t175.5 99.5q-104 37 -144 101.5t-17 193.5l28 154q27 158 -35.5 239.5t-269.5 138.5q-23 10 -18 29q4 25 45 16q236 -49 303 -144t37 -267l-29 -162q-23 -131 19.5 -195.5t191.5 -64.5 q49 0 43 -39t-55 -39q-150 0 -216.5 -64.5t-88.5 -195.5l-29 -162q-20 -115 -62.5 -187.5t-144.5 -132t-276 -91.5q-14 -2 -22.5 -2t-14.5 4t-4 16z" />
<glyph unicode="~" horiz-adv-x="942" d="M174 520q0 4 8 29q14 47 63.5 85t92.5 38q39 0 133 -39t129 -39q63 0 102 88q0 2 4.5 13.5t9.5 16.5t13 5q37 0 37 -35q0 -12 -4 -25q-45 -139 -162 -139q-37 0 -131 40t-131 40q-63 0 -98 -80q-12 -25 -33 -24q-33 -1 -33 26z" />
<glyph unicode="&#xa1;" horiz-adv-x="516" d="M195 35l186 1067q4 20 27 20h4q10 -2 16 -11t4 -19l-186 -1065q-6 -25 -31 -21q-10 2 -16 10.5t-4 18.5zM428 1368l10 49q4 23 25 23q4 0 4 -2q27 -4 22 -29l-10 -49q-4 -27 -28 -23q-27 8 -23 31z" />
<glyph unicode="&#xa2;" horiz-adv-x="1189" d="M127 590q0 41 6 86q33 184 179.5 322.5t336.5 166.5l29 129q10 45 35 45q37 0 24 -45l-28 -123h24q176 2 303 -110q20 -16 2 -34.5t-37 -2.5q-109 96 -268 96q-25 0 -35 -2l-200 -893q41 -4 67 -4q164 0 307 98q20 14 37 -6q14 -23 -8 -37q-158 -109 -336 -108 q-43 0 -80 6l-28 -129q-8 -45 -39 -45q-29 0 -21 45l31 141q-102 27 -178 103q-123 119 -123 301zM178 590q0 -127 70.5 -222.5t191.5 -129.5l197 874q-168 -33 -297 -159t-156 -287q-6 -37 -6 -76z" />
<glyph unicode="&#xa3;" horiz-adv-x="1318" d="M137 -2q4 18 29 20l162 19l135 600h-135h-25q-10 0 -15 5t-3 17q6 29 55 29h135l60 262q53 240 217 371q145 119 333 119q246 0 367 -191q10 -16 4 -39q-4 -18 -14 -20t-27 2q-8 0 -15 9t-13.5 23.5t-8.5 16.5q-98 152 -305 152q-74 0 -155.5 -30t-135.5 -73 q-63 -51 -119.5 -146t-76.5 -192l-60 -264h623q25 0 36 -5t7 -24q-2 -12 -10 -17t-20 -5h-25h-623l-135 -600l778 -2h6q14 0 21.5 -1t13.5 -6t4 -18q-6 -25 -55 -24h-985q-25 0 -25 12z" />
<glyph unicode="&#xa5;" horiz-adv-x="1404" d="M111 389q8 33 39 33h323l51 254h-323q-29 0 -25 24q8 31 37 31h301l-342 660q-16 20 12 34q23 16 35 -4l348 -669l625 669q23 18 37 4q20 -16 2 -34l-621 -660h303q12 0 19.5 -9t5.5 -22q-4 -25 -37 -24h-326l-51 -254h326q12 0 19.5 -10.5t2.5 -22.5q-4 -27 -34 -27 h-326l-70 -335q-8 -27 -30 -27q-10 0 -16.5 8t-4.5 19l70 335h-324q-30 0 -26 27z" />
<glyph unicode="&#xa8;" d="M272 1304.5q4 28.5 25.5 49t50.5 20.5t47.5 -20.5t14.5 -48.5q-4 -31 -26 -50.5t-50.5 -19.5t-47 20.5t-14.5 49zM645 1304.5q4 28.5 25.5 49t50.5 20.5t47 -20.5t16 -48.5q-4 -29 -26.5 -49.5t-51 -20.5t-47 20.5t-14.5 49z" />
<glyph unicode="&#xa9;" horiz-adv-x="1699" d="M109 713v4q0 305 217 523t526 218t524 -216t215 -521v-4q0 -305 -217 -523.5t-526 -218.5t-524 216.5t-215 521.5zM170 713q0 -283 194.5 -481.5t483.5 -198.5t485.5 199.5t196.5 484.5v4q0 283 -194.5 481.5t-483.5 198.5t-485.5 -200t-196.5 -484v-4zM485 725v4 q0 158 108.5 272.5t266.5 114.5q147 0 264 -102q18 -14 19 -37q0 -18 -13.5 -30.5t-31.5 -12.5q-14 0 -33 14q-100 86 -207 86q-121 0 -202 -89t-81 -214v-4q0 -125 83 -215t202 -90q117 0 217 90q16 10 29 10q16 0 28.5 -12t12.5 -29q0 -20 -14 -30q-127 -111 -275 -111 q-158 0 -265.5 112.5t-107.5 272.5z" />
<glyph unicode="&#xad;" horiz-adv-x="835" d="M135 715q0 23 21 22h467q18 0 18 -22q0 -18 -18 -19h-467q-21 1 -21 19z" />
<glyph unicode="&#xae;" horiz-adv-x="851" d="M70 1094v2q0 147 104.5 252.5t251.5 105.5q150 0 253 -104.5t103 -251.5v-2q0 -147 -104.5 -253t-251.5 -106q-150 0 -253 105t-103 252zM90 1094q0 -141 96.5 -239.5t239.5 -98.5q141 0 238.5 99t97.5 241v2q0 141 -96.5 239.5t-239.5 98.5q-141 0 -238.5 -99.5 t-97.5 -240.5v-2zM285 872q0 -10 8 -10q10 0 10 10v197h125l16 -4q37 -10 56 -31q33 -25 32 -69q0 -53 15 -78q8 -16 24 -17q4 0 4 2q6 0 7 9q-4 6 -10.5 6t-12.5 8q-8 20 -8 70q0 63 -62 98q-10 6 -24 10q41 12 66.5 46t25.5 79q0 53 -37 91t-90 38h-135h-2q-8 0 -8 -8 v-447zM303 1087v222h127q47 0 80 -32t33 -79q0 -45 -33 -78t-80 -33h-127z" />
<glyph unicode="&#xb4;" d="M412 1231q0 10 8 22l127 191q25 37 57 37q18 0 25.5 -5.5t9.5 -14.5t2 -11q6 -10 -20 -37l-146 -158q-16 -18 -49 -30q-14 -8 -14 6z" />
<glyph unicode="&#xb8;" d="M348 -242q0 12 10 31l158 231h88l-133 -270q-20 -41 -53 -41q-25 0 -47.5 16.5t-22.5 32.5z" />
<glyph unicode="&#xbf;" horiz-adv-x="1093" d="M106 362q0 35 7 76q31 172 170 295t313 131l45 254q4 20 25 21h4q25 -4 18 -29l-45 -264q-2 -2 -2 -4q0 -25 -25 -25q-160 0 -293 -114.5t-161 -274.5q-6 -35 -6 -66q0 -135 88 -223t229 -90q104 0 202.5 53.5t166.5 141.5q16 20 35 4q18 -14 4 -35 q-74 -98 -182.5 -155.5t-225.5 -57.5q-160 0 -264 104q-103 102 -103 258zM684 1366l8 47q4 20 25 21h4q25 -4 20 -29l-8 -47q-2 -10 -11 -15.5t-17 -3.5q-25 4 -21 27z" />
<glyph unicode="&#xc0;" horiz-adv-x="1617" d="M123 37l762 1382q10 16 26 13q20 4 27 -21l274 -1380q4 -27 -20 -31h-4q-23 0 -27 20l-71 365h-717l-205 -373q-8 -12 -23 -12q-10 0 -14 2q-22 15 -8 35zM401 436h678l-180 901zM791 1860q0 2 2 11t9 14t25 5q33 0 58 -37l127 -190q8 -12 8 -23q0 -14 -14 -6 q-33 12 -50 31l-145 158q-26 27 -20 37z" />
<glyph unicode="&#xc1;" horiz-adv-x="1617" d="M123 37l762 1382q10 16 26 13q20 4 27 -21l274 -1380q4 -27 -20 -31h-4q-23 0 -27 20l-71 365h-717l-205 -373q-8 -12 -23 -12q-10 0 -14 2q-22 15 -8 35zM401 436h678l-180 901zM782 1640q0 10 9 23l127 190q25 37 57 37q18 0 25.5 -5t9.5 -14t2 -11q6 -10 -21 -37 l-145 -158q-16 -18 -49 -31q-15 -8 -15 6z" />
<glyph unicode="&#xc2;" horiz-adv-x="1617" d="M123 37l762 1382q10 16 26 13q20 4 27 -21l274 -1380q4 -27 -20 -31h-4q-23 0 -27 20l-71 365h-717l-205 -373q-8 -12 -23 -12q-10 0 -14 2q-22 15 -8 35zM401 436h678l-180 901zM678 1642q2 10 16 25l187 180q41 37 65 37h17q29 0 49 -37l108 -180q8 -12 4 -25 q-2 -8 -12 -6q-8 2 -14 2q-14 0 -28.5 14.5t-18.5 24.5l-111 154l-174 -156q-45 -37 -59 -37q-29 0 -29 4z" />
<glyph unicode="&#xc3;" horiz-adv-x="1617" d="M123 37l762 1382q10 16 26 13q20 4 27 -21l274 -1380q4 -27 -20 -31h-4q-23 0 -27 20l-71 365h-717l-205 -373q-8 -12 -23 -12q-10 0 -14 2q-22 15 -8 35zM401 436h678l-180 901zM606 1645q0 4 8 28q14 47 63.5 85t92.5 38q41 0 135 -39t127 -39q63 0 103 88q0 2 4 13.5 t9 16.5t13 5q37 0 37 -35q0 -12 -4 -24q-45 -139 -162 -140q-37 0 -131 40t-131 40q-63 0 -98 -80q-12 -25 -33 -24q-33 0 -33 27z" />
<glyph unicode="&#xc4;" horiz-adv-x="1617" d="M123 37l762 1382q10 16 26 13q20 4 27 -21l274 -1380q4 -27 -20 -31h-4q-23 0 -27 20l-71 365h-717l-205 -373q-8 -12 -23 -12q-10 0 -14 2q-22 15 -8 35zM401 436h678l-180 901zM680 1714.5q4 28.5 25.5 49t50 20.5t47 -20.5t14.5 -49.5q-4 -31 -25.5 -50t-50 -19 t-47 20.5t-14.5 49zM1053 1714.5q4 28.5 25.5 49t50 20.5t47 -20.5t16.5 -49.5q-4 -29 -26.5 -49t-51.5 -20t-47 20.5t-14 49z" />
<glyph unicode="&#xc5;" horiz-adv-x="1546" d="M170 37l727 1319q-51 14 -76.5 57t-17.5 100v3q14 72 70.5 115.5t124 43.5t108.5 -46t29 -113v-3q-10 -55 -48 -98t-94 -57l262 -1321q6 -23 -20 -35q-2 0 -6 -2h-2q-14 0 -25 18l-72 367h-716l-203 -367q-4 -18 -25 -18h-4q-4 2 -6 2q-18 12 -6 35zM444 438h676 l-180 897zM852 1511q-6 -39 12.5 -71.5t55.5 -40.5q20 -4 28 -4q18 0 35 6q39 10 67.5 42t34.5 68v2q8 45 -19.5 81t-76.5 36t-89 -35.5t-48 -81.5v-2z" />
<glyph unicode="&#xc6;" horiz-adv-x="2340" d="M78 47q14 29 1057 1362q27 33 59 33h1018q25 0 36 -5t7 -24q-4 -29 -53 -29h-887l-111 -620h795q23 0 35 -7t10 -26q-8 -33 -55 -33h-795l-113 -630h897q25 0 36 -5.5t9 -23.5q-4 -31 -55 -31h-905q-23 0 -35 16.5t-8 36.5l65 369h-641l-317 -405q-23 -23 -43 -19 q-18 2 -6 41zM487 485h607l159 901h-65z" />
<glyph unicode="&#xc7;" horiz-adv-x="1511" d="M150 594q0 70 10 123q51 295 302 502.5t556 210.5q258 0 432 -158q20 -18 2 -37q-16 -20 -37 -2q-156 143 -397 143q-285 2 -522.5 -195.5t-284.5 -473.5q-10 -61 -10 -113q0 -236 160.5 -391.5t412.5 -155.5q242 0 453 146q20 14 37 -7q14 -23 -9 -36 q-225 -154 -481 -154q-270 0 -450 170q-174 170 -174 428zM803 -242q0 12 10 31l158 231h88l-133 -270q-20 -41 -54 -41q-25 0 -47 16.5t-22 32.5z" />
<glyph unicode="&#xc8;" horiz-adv-x="1372" d="M215 31l244 1382q4 25 28 21q0 2 2 2h760q27 0 27 -27t-27 -27h-743l-113 -639h645q27 0 27 -24q0 -27 -27 -27h-653l-113 -639h734q27 0 26 -26q0 -25 -26 -25h-760h-2h-2h-6q-25 4 -21 29zM748 1860q0 2 2 11t9 14t25 5q33 0 58 -37l127 -190q8 -12 8 -23q0 -14 -14 -6 q-33 12 -50 31l-145 158q-26 27 -20 37z" />
<glyph unicode="&#xc9;" horiz-adv-x="1372" d="M215 31l244 1382q4 25 28 21q0 2 2 2h760q27 0 27 -27t-27 -27h-743l-113 -639h645q27 0 27 -24q0 -27 -27 -27h-653l-113 -639h734q27 0 26 -26q0 -25 -26 -25h-760h-2h-2h-6q-25 4 -21 29zM911 1640q0 10 9 23l127 190q25 37 57 37q18 0 25.5 -5t9.5 -14t2 -11 q6 -10 -21 -37l-145 -158q-16 -18 -49 -31q-15 -8 -15 6z" />
<glyph unicode="&#xca;" horiz-adv-x="1372" d="M215 31l244 1382q4 25 28 21q0 2 2 2h760q27 0 27 -27t-27 -27h-743l-113 -639h645q27 0 27 -24q0 -27 -27 -27h-653l-113 -639h734q27 0 26 -26q0 -25 -26 -25h-760h-2h-2h-6q-25 4 -21 29zM676 1642q2 10 16 25l187 180q41 37 65 37h17q29 0 49 -37l108 -180 q8 -12 4 -25q-2 -8 -12 -6q-8 2 -14 2q-14 0 -28.5 14.5t-18.5 24.5l-111 154l-174 -156q-45 -37 -59 -37q-29 0 -29 4z" />
<glyph unicode="&#xcb;" horiz-adv-x="1372" d="M215 31l244 1382q4 25 28 21q0 2 2 2h760q27 0 27 -27t-27 -27h-743l-113 -639h645q27 0 27 -24q0 -27 -27 -27h-653l-113 -639h734q27 0 26 -26q0 -25 -26 -25h-760h-2h-2h-6q-25 4 -21 29zM663.5 1714.5q4.5 28.5 26 49t50 20.5t47 -20.5t14.5 -49.5q-4 -31 -25.5 -50 t-50.5 -19t-47.5 20.5t-14 49zM1036 1714.5q4 28.5 25.5 49t50.5 20.5t47.5 -20.5t16.5 -49.5q-4 -29 -27 -49t-51.5 -20t-47 20.5t-14.5 49z" />
<glyph unicode="&#xcc;" horiz-adv-x="561" d="M33 29l243 1382q4 25 29 21q27 -4 23 -31l-244 -1381q-4 -23 -27 -22h-4q-24 6 -20 31zM190 1860q0 2 2.5 11t9.5 14t25 5q33 0 58 -37l127 -190q8 -12 8 -23q0 -14 -14 -6q-33 12 -50 31l-145 158q-27 27 -21 37z" />
<glyph unicode="&#xcd;" horiz-adv-x="561" d="M229 29l244 1382q4 25 29 21q27 -4 22 -31l-243 -1381q-4 -23 -27 -22h-4q-25 6 -21 31zM387 1640q0 10 8 23l127 190q25 37 58 37q18 0 25 -5t9 -14t2 -11q6 -10 -20 -37l-145 -158q-16 -18 -50 -31q-14 -8 -14 6z" />
<glyph unicode="&#xce;" horiz-adv-x="561" d="M162 29l244 1382q4 25 28 21q27 -4 23 -31l-244 -1381q-4 -23 -27 -22h-4q-24 6 -20 31zM209 1642q2 10 16 25l187 180q41 37 65 37h17q29 0 49 -37l108 -180q8 -12 4 -25q-2 -8 -12 -6q-8 2 -14 2q-14 0 -28.5 14.5t-18.5 24.5l-111 154l-174 -156q-45 -37 -59 -37 q-29 0 -29 4z" />
<glyph unicode="&#xcf;" horiz-adv-x="561" d="M43 29l244 1382q4 25 28 21q27 -4 23 -31l-244 -1381q-4 -23 -26 -22h-5q-24 6 -20 31zM51 1714.5q4 28.5 25.5 49t50.5 20.5t47.5 -20.5t13.5 -49.5q-4 -31 -25.5 -50t-50 -19t-47 20.5t-14.5 49zM424 1714.5q4 28.5 25.5 49t50 20.5t47 -20.5t16.5 -49.5 q-4 -29 -26.5 -49t-51 -20t-47 20.5t-14.5 49z" />
<glyph unicode="&#xd0;" horiz-adv-x="1472" d="M109 776q0 -18 20 -18h467q18 0 18 18q0 23 -18 23h-467q-20 0 -20 -23zM217 25l242 1382q6 20 26 20q0 2 2 3h275q260 0 436 -173q170 -170 170 -423q0 -63 -12 -127q-53 -295 -297 -503t-541 -208h-274h-2h-4q-10 2 -17.5 10.5t-3.5 18.5zM272 47h246 q274 0 506.5 196.5t280.5 473.5q10 49 10 117q0 233 -154.5 387.5t-398.5 154.5h-254z" />
<glyph unicode="&#xd1;" horiz-adv-x="1617" d="M217 35l242 1374q0 2 2 4q0 12 12 23q25 12 35 -11l717 -1319l229 1303q6 25 31 21q10 -2 16 -11.5t4 -17.5l-241 -1374q-4 -23 -25 -23h-6q-10 2 -19 14l-2 2q0 4 -2 5l-712 1310l-232 -1308q-4 -23 -24 -23h-4q-27 8 -21 31zM758 1645q0 4 8 28q14 47 63.5 85t92.5 38 q41 0 135 -39t127 -39q63 0 102 88q0 2 4 13.5t9.5 16.5t13.5 5q37 0 37 -35q0 -12 -4 -24q-45 -139 -162 -140q-37 0 -131.5 40t-130.5 40q-63 0 -99 -80q-12 -25 -32 -24q-33 0 -33 27z" />
<glyph unicode="&#xd2;" horiz-adv-x="1740" d="M150 588q0 63 12 131q53 297 285.5 505t510.5 208q250 0 408 -170q158 -164 158 -418q0 -78 -11 -133q-53 -295 -285.5 -503t-512.5 -210q-248 0 -408 170q-157 164 -157 420zM201 588q2 -233 145 -385t369 -154q258 0 478 196.5t269 473.5q10 72 11 125 q0 231 -144.5 382.5t-370.5 153.5h-2q-258 0 -477 -196.5t-266 -472.5q-12 -64 -12 -123zM1092 1860q0 2 2 11t9 14t25 5q33 0 58 -37l127 -190q8 -12 8 -23q0 -14 -14 -6q-33 12 -50 31l-145 158q-26 27 -20 37z" />
<glyph unicode="&#xd3;" horiz-adv-x="1740" d="M150 588q0 63 12 131q53 297 285.5 505t510.5 208q250 0 408 -170q158 -164 158 -418q0 -78 -11 -133q-53 -295 -285.5 -503t-512.5 -210q-248 0 -408 170q-157 164 -157 420zM201 588q2 -233 145 -385t369 -154q258 0 478 196.5t269 473.5q10 72 11 125 q0 231 -144.5 382.5t-370.5 153.5h-2q-258 0 -477 -196.5t-266 -472.5q-12 -64 -12 -123zM997 1640q0 10 9 23l127 190q25 37 57 37q18 0 25.5 -5t9.5 -14t2 -11q6 -10 -21 -37l-145 -158q-16 -18 -49 -31q-15 -8 -15 6z" />
<glyph unicode="&#xd4;" horiz-adv-x="1740" d="M150 588q0 63 12 131q53 297 285.5 505t510.5 208q250 0 408 -170q158 -164 158 -418q0 -78 -11 -133q-53 -295 -285.5 -503t-512.5 -210q-248 0 -408 170q-157 164 -157 420zM201 588q2 -233 145 -385t369 -154q258 0 478 196.5t269 473.5q10 72 11 125 q0 231 -144.5 382.5t-370.5 153.5h-2q-258 0 -477 -196.5t-266 -472.5q-12 -64 -12 -123zM840 1642q2 10 16 25l186 180q41 37 66 37h16q29 0 50 -37l108 -180q8 -12 4 -25q-2 -8 -12 -6q-8 2 -14 2q-14 0 -28.5 14.5t-19.5 24.5l-110 154l-174 -156q-45 -37 -60 -37 q-28 0 -28 4z" />
<glyph unicode="&#xd5;" horiz-adv-x="1740" d="M150 588q0 63 12 131q53 297 285.5 505t510.5 208q250 0 408 -170q158 -164 158 -418q0 -78 -11 -133q-53 -295 -285.5 -503t-512.5 -210q-248 0 -408 170q-157 164 -157 420zM201 588q2 -233 145 -385t369 -154q258 0 478 196.5t269 473.5q10 72 11 125 q0 231 -144.5 382.5t-370.5 153.5h-2q-258 0 -477 -196.5t-266 -472.5q-12 -64 -12 -123zM760 1645q0 4 8 28q14 47 63.5 85t92.5 38q39 0 133 -39t129 -39q63 0 102 88q0 2 4 13.5t9.5 16.5t13.5 5q37 0 37 -35q0 -12 -4 -24q-45 -139 -162 -140q-37 0 -131 40t-131 40 q-63 0 -99 -80q-12 -25 -32 -24q-33 0 -33 27z" />
<glyph unicode="&#xd6;" horiz-adv-x="1740" d="M150 588q0 63 12 131q53 297 285.5 505t510.5 208q250 0 408 -170q158 -164 158 -418q0 -78 -11 -133q-53 -295 -285.5 -503t-512.5 -210q-248 0 -408 170q-157 164 -157 420zM201 588q2 -233 145 -385t369 -154q258 0 478 196.5t269 473.5q10 72 11 125 q0 231 -144.5 382.5t-370.5 153.5h-2q-258 0 -477 -196.5t-266 -472.5q-12 -64 -12 -123zM801 1714.5q4 28.5 25.5 49t50 20.5t47 -20.5t14.5 -49.5q-4 -31 -25.5 -50t-50 -19t-47 20.5t-14.5 49zM1173.5 1714.5q4.5 28.5 26 49t50 20.5t47 -20.5t16.5 -49.5 q-4 -29 -26.5 -49t-51.5 -20t-47.5 20.5t-14 49z" />
<glyph unicode="&#xd7;" horiz-adv-x="1269" d="M205 339.5q0 20.5 16 37.5l346 342l-344 340q-18 18 -18 40.5t14 37t37 14.5t41 -18l340 -345l342 347q16 16 36.5 16t35 -14.5t14.5 -35t-16 -36.5l-347 -342l345 -340q18 -18 18 -41t-14.5 -37t-37 -14t-40.5 18l-340 344l-342 -346q-16 -16 -37 -16t-35 14t-14 34.5z " />
<glyph unicode="&#xd8;" horiz-adv-x="1740" d="M150 588q0 63 12 131q53 297 285.5 505t510.5 208q250 0 408 -170q158 -164 158 -418q0 -78 -11 -133q-53 -295 -285.5 -503t-512.5 -210q-248 0 -408 170q-157 164 -157 420zM201 588q2 -233 145 -385t369 -154q258 0 478 196.5t269 473.5q10 72 11 125 q0 231 -144.5 382.5t-370.5 153.5h-2q-258 0 -477 -196.5t-266 -472.5q-12 -64 -12 -123zM207 29q0 -6 8 -6q16 -6 27 6l1243 1284q16 20 -4 37q-8 8 -19.5 7t-17.5 -9l-1237 -1282q-18 -23 0 -37z" />
<glyph unicode="&#xd9;" horiz-adv-x="1556" d="M190 473q0 57 9 100l147 834q4 27 31 23q25 -8 20 -31l-147 -834q-8 -41 -8 -92q2 -184 122.5 -304t311.5 -122q217 0 399 154.5t219 371.5l148 834q4 27 31 23q25 -6 20 -31l-147 -834q-41 -238 -237 -403.5t-433 -165.5q-213 0 -350 137q-136 135 -136 340zM856 1860 q0 2 2 11t9 14t26 5q33 0 57 -37l127 -190q8 -12 8 -23q0 -14 -14 -6q-33 12 -49 31l-145 158q-27 27 -21 37z" />
<glyph unicode="&#xda;" horiz-adv-x="1556" d="M190 473q0 57 9 100l147 834q4 27 31 23q25 -8 20 -31l-147 -834q-8 -41 -8 -92q2 -184 122.5 -304t311.5 -122q217 0 399 154.5t219 371.5l148 834q4 27 31 23q25 -6 20 -31l-147 -834q-41 -238 -237 -403.5t-433 -165.5q-213 0 -350 137q-136 135 -136 340zM797 1640 q0 10 8 23l127 190q25 37 57 37q18 0 25.5 -5t9.5 -14t2 -11q6 -10 -20 -37l-146 -158q-16 -18 -49 -31q-14 -8 -14 6z" />
<glyph unicode="&#xdb;" horiz-adv-x="1556" d="M190 473q0 57 9 100l147 834q4 27 31 23q25 -8 20 -31l-147 -834q-8 -41 -8 -92q2 -184 122.5 -304t311.5 -122q217 0 399 154.5t219 371.5l148 834q4 27 31 23q25 -6 20 -31l-147 -834q-41 -238 -237 -403.5t-433 -165.5q-213 0 -350 137q-136 135 -136 340zM762 1642 q2 10 16 25l187 180q41 37 65 37h17q29 0 49 -37l108 -180q8 -12 4 -25q-2 -8 -12 -6q-8 2 -14 2q-14 0 -28.5 14.5t-18.5 24.5l-111 154l-174 -156q-45 -37 -59 -37q-29 0 -29 4z" />
<glyph unicode="&#xdc;" horiz-adv-x="1556" d="M190 473q0 57 9 100l147 834q4 27 31 23q25 -8 20 -31l-147 -834q-8 -41 -8 -92q2 -184 122.5 -304t311.5 -122q217 0 399 154.5t219 371.5l148 834q4 27 31 23q25 -6 20 -31l-147 -834q-41 -238 -237 -403.5t-433 -165.5q-213 0 -350 137q-136 135 -136 340zM723 1714.5 q4 28.5 25.5 49t50 20.5t47 -20.5t14.5 -49.5q-4 -31 -25.5 -50t-50 -19t-47 20.5t-14.5 49zM1096 1714.5q4 28.5 25.5 49t50 20.5t47 -20.5t16.5 -49.5q-4 -29 -26.5 -49t-51.5 -20t-47 20.5t-14 49z" />
<glyph unicode="&#xdd;" horiz-adv-x="1466" d="M119 1391q-14 23 10 34q25 16 35 -10l368 -663l609 669q18 18 37 2q18 -18 2 -37l-627 -692h-2l-119 -678q-4 -20 -24 -20h-7q-25 4 -20 31l119 675zM653 1640q0 10 9 23l126 190q25 37 58 37q18 0 25.5 -5t9.5 -14t2 -11q6 -10 -21 -37l-145 -158q-16 -18 -49 -31 q-15 -8 -15 6z" />
<glyph unicode="&#xdf;" horiz-adv-x="1269" d="M197 45l172 983q39 215 185 350t351 135q182 0 277.5 -102t66.5 -256v-4q-25 -139 -135 -239.5t-254 -149.5q174 -31 274.5 -122t73.5 -245v-4q-33 -182 -191.5 -282.5t-391.5 -108.5q-16 0 -26.5 13.5t-8.5 31.5t17.5 30.5t33.5 14.5q186 10 310 84t147 213l2 4 q23 131 -73.5 208t-270.5 99q-49 6 -43 50q8 37 51 51q334 111 377 348v4q20 117 -51.5 192.5t-206.5 75.5q-152 0 -266.5 -106.5t-147.5 -284.5l-172 -983q-10 -49 -59 -49q-23 0 -34 14.5t-7 34.5z" />
<glyph unicode="&#xe0;" horiz-adv-x="1175" d="M129 414q0 51 8 94q37 205 198 348t355 143q172 4 285 -118q61 -63 88 -156l47 254q4 27 29 20q25 -4 20 -28l-84 -473l-82 -471q-4 -20 -24 -21h-4q-27 4 -21 29l41 237q-80 -121 -204 -193.5t-259 -74.5q-174 0 -282 121q-111 115 -111 289zM180 414 q2 -156 96.5 -256.5t245.5 -100.5q174 -2 322.5 131.5t181.5 319.5q6 43 6 84q0 156 -95 256t-247 100h-2q-172 0 -319.5 -132t-180.5 -318q-8 -39 -8 -84zM682 1450q0 2 2 11t9 14.5t26 5.5q33 0 57 -37l127 -191q8 -12 8 -22q0 -14 -14 -6q-33 12 -49 30l-146 158 q-26 27 -20 37z" />
<glyph unicode="&#xe1;" horiz-adv-x="1175" d="M129 414q0 51 8 94q37 205 198 348t355 143q172 4 285 -118q61 -63 88 -156l47 254q4 27 29 20q25 -4 20 -28l-84 -473l-82 -471q-4 -20 -24 -21h-4q-27 4 -21 29l41 237q-80 -121 -204 -193.5t-259 -74.5q-174 0 -282 121q-111 115 -111 289zM180 414 q2 -156 96.5 -256.5t245.5 -100.5q174 -2 322.5 131.5t181.5 319.5q6 43 6 84q0 156 -95 256t-247 100h-2q-172 0 -319.5 -132t-180.5 -318q-8 -39 -8 -84zM580 1231q0 10 8 22l127 191q25 37 57 37q18 0 25.5 -5.5t9.5 -14.5t2 -11q6 -10 -21 -37l-145 -158 q-16 -18 -49 -30q-14 -8 -14 6z" />
<glyph unicode="&#xe2;" horiz-adv-x="1175" d="M129 414q0 51 8 94q37 205 198 348t355 143q172 4 285 -118q61 -63 88 -156l47 254q4 27 29 20q25 -4 20 -28l-84 -473l-82 -471q-4 -20 -24 -21h-4q-27 4 -21 29l41 237q-80 -121 -204 -193.5t-259 -74.5q-174 0 -282 121q-111 115 -111 289zM180 414 q2 -156 96.5 -256.5t245.5 -100.5q174 -2 322.5 131.5t181.5 319.5q6 43 6 84q0 156 -95 256t-247 100h-2q-172 0 -319.5 -132t-180.5 -318q-8 -39 -8 -84zM578 1233q2 10 16 24l186 181q41 37 66 37h16q29 0 49 -37l109 -181q8 -12 4 -24q-2 -8 -12 -6q-8 2 -15 2 q-14 0 -28.5 14t-18.5 25l-110 153l-174 -155q-45 -37 -60 -37q-28 0 -28 4z" />
<glyph unicode="&#xe3;" horiz-adv-x="1175" d="M129 414q0 51 8 94q37 205 198 348t355 143q172 4 285 -118q61 -63 88 -156l47 254q4 27 29 20q25 -4 20 -28l-84 -473l-82 -471q-4 -20 -24 -21h-4q-27 4 -21 29l41 237q-80 -121 -204 -193.5t-259 -74.5q-174 0 -282 121q-111 115 -111 289zM180 414 q2 -156 96.5 -256.5t245.5 -100.5q174 -2 322.5 131.5t181.5 319.5q6 43 6 84q0 156 -95 256t-247 100h-2q-172 0 -319.5 -132t-180.5 -318q-8 -39 -8 -84zM514 1235q0 4 8 29q14 47 63.5 84.5t92.5 37.5q39 0 133 -38.5t129 -38.5q63 0 102 88q0 2 4.5 13t9.5 16.5t13 5.5 q37 0 37 -35q0 -12 -4 -25q-45 -139 -162 -139q-37 0 -131 40t-131 40q-63 0 -98 -80q-12 -25 -33 -25q-33 0 -33 27z" />
<glyph unicode="&#xe4;" horiz-adv-x="1175" d="M129 414q0 51 8 94q37 205 198 348t355 143q172 4 285 -118q61 -63 88 -156l47 254q4 27 29 20q25 -4 20 -28l-84 -473l-82 -471q-4 -20 -24 -21h-4q-27 4 -21 29l41 237q-80 -121 -204 -193.5t-259 -74.5q-174 0 -282 121q-111 115 -111 289zM180 414 q2 -156 96.5 -256.5t245.5 -100.5q174 -2 322.5 131.5t181.5 319.5q6 43 6 84q0 156 -95 256t-247 100h-2q-172 0 -319.5 -132t-180.5 -318q-8 -39 -8 -84zM555 1304.5q4 28.5 25.5 49t50 20.5t47 -20.5t14.5 -48.5q-4 -31 -25.5 -50.5t-50 -19.5t-47 20.5t-14.5 49z M928 1304.5q4 28.5 25.5 49t50 20.5t47 -20.5t16.5 -48.5q-4 -29 -26.5 -49.5t-51 -20.5t-47 20.5t-14.5 49z" />
<glyph unicode="&#xe5;" horiz-adv-x="1175" d="M104 414q0 51 9 94q37 205 197.5 348t355.5 143q172 4 284 -118q61 -63 88 -156l47 254q4 27 29 20q25 -4 21 -28l-84 -473l-82 -471q-4 -20 -25 -21h-4q-27 4 -20 29l41 237q-80 -121 -204 -193.5t-259 -74.5q-174 0 -283 121q-111 115 -111 289zM156 414 q2 -156 96 -256.5t246 -100.5q174 -2 322.5 131.5t180.5 319.5q6 43 7 84q0 156 -95.5 256t-246.5 100h-2q-172 0 -319.5 -132t-180.5 -318q-8 -39 -8 -84zM686 1294v2q14 72 70.5 116t124 44t108.5 -46t29 -114v-2q-10 -68 -66.5 -116t-128.5 -48q-70 0 -108.5 48 t-28.5 116zM735 1292q-8 -45 19.5 -80.5t77 -35.5t89.5 35.5t48 80.5v2q8 45 -19.5 81t-77 36t-89.5 -36t-48 -81v-2z" />
<glyph unicode="&#xe6;" horiz-adv-x="1953" d="M104 418q0 51 9 94q37 207 198.5 351.5t358.5 144.5q174 2 286 -119q63 -66 91 -158l47 256q4 27 28 21q25 -4 21 -29l-49 -272q80 133 214 215t281 82q178 2 293 -119q115 -115 115 -295q0 -37 -2 -55q0 -2 -1 -4.5t-1 -4.5q-8 -18 -25 -18h-895q-2 -4 -2 -10 q-8 -35 -8 -82q0 -158 100.5 -260.5t257.5 -102.5q113 0 219.5 55.5t182.5 149.5q14 18 37 4q18 -18 4 -37q-182 -221 -443 -225q-180 0 -295 121q-78 78 -102 184l-49 -278q-4 -20 -25 -21h-4q-27 4 -20 29l41 239q-80 -121 -204 -194.5t-261 -75.5q-176 0 -287 121 q-111 117 -111 293zM156 418q2 -158 98 -259.5t248 -101.5q176 -2 325.5 132.5t182.5 322.5q6 43 6 84q0 158 -96.5 259t-249.5 101h-2q-174 0 -322.5 -134t-181.5 -320q-8 -39 -8 -84zM1085 559h859q2 10 2 31q0 158 -99.5 260t-257.5 102q-164 2 -308.5 -111.5 t-195.5 -281.5z" />
<glyph unicode="&#xe7;" horiz-adv-x="1169" d="M119 418q0 41 6 86q39 207 213 351t387 144q176 2 303 -110q20 -16 2 -34.5t-37 -2.5q-109 96 -268 96q-193 2 -354.5 -132t-194.5 -322q-6 -37 -6 -76q0 -160 108.5 -264.5t278.5 -104.5q164 0 307 98q20 14 37 -6q14 -23 -8 -37q-158 -109 -336 -108q-190 0 -315 121 q-123 119 -123 301zM612 -242q0 12 11 31l157 231h88l-133 -270q-20 -41 -53 -41q-25 0 -47.5 16.5t-22.5 32.5z" />
<glyph unicode="&#xe8;" horiz-adv-x="1196" d="M125 416q0 51 8 90q37 207 203 351t364 144q178 2 293 -118q115 -115 115 -295q0 -37 -2 -56v-4l-2 -4q-8 -18 -25 -18h-893q-2 -4 -2 -10q-8 -33 -8 -80q0 -158 100.5 -260.5t258.5 -102.5q111 0 217 55.5t182 149.5q14 18 37 4q18 -18 4 -37q-182 -221 -440 -225 q-180 0 -295 121q-115 115 -115 295zM199 557h856q2 10 2 31q0 158 -99.5 260t-257.5 102q-164 2 -307 -111.5t-194 -281.5zM672 1450q0 2 2 11t9 14.5t26 5.5q33 0 57 -37l127 -191q8 -12 8 -22q0 -14 -14 -6q-33 12 -49 30l-146 158q-26 27 -20 37z" />
<glyph unicode="&#xe9;" horiz-adv-x="1196" d="M125 416q0 51 8 90q37 207 203 351t364 144q178 2 293 -118q115 -115 115 -295q0 -37 -2 -56v-4l-2 -4q-8 -18 -25 -18h-893q-2 -4 -2 -10q-8 -33 -8 -80q0 -158 100.5 -260.5t258.5 -102.5q111 0 217 55.5t182 149.5q14 18 37 4q18 -18 4 -37q-182 -221 -440 -225 q-180 0 -295 121q-115 115 -115 295zM199 557h856q2 10 2 31q0 158 -99.5 260t-257.5 102q-164 2 -307 -111.5t-194 -281.5zM573 1231q0 10 9 22l127 191q25 37 57 37q18 0 25.5 -5.5t9.5 -14.5t2 -11q6 -10 -21 -37l-145 -158q-16 -18 -49 -30q-15 -8 -15 6z" />
<glyph unicode="&#xea;" horiz-adv-x="1196" d="M125 416q0 51 8 90q37 207 203 351t364 144q178 2 293 -118q115 -115 115 -295q0 -37 -2 -56v-4l-2 -4q-8 -18 -25 -18h-893q-2 -4 -2 -10q-8 -33 -8 -80q0 -158 100.5 -260.5t258.5 -102.5q111 0 217 55.5t182 149.5q14 18 37 4q18 -18 4 -37q-182 -221 -440 -225 q-180 0 -295 121q-115 115 -115 295zM199 557h856q2 10 2 31q0 158 -99.5 260t-257.5 102q-164 2 -307 -111.5t-194 -281.5zM530 1233q2 10 17 24l186 181q41 37 66 37h16q29 0 49 -37l109 -181q8 -12 4 -24q-2 -8 -12 -6q-8 2 -15 2q-14 0 -28.5 14t-18.5 25l-110 153 l-175 -155q-45 -37 -59 -37q-29 0 -29 4z" />
<glyph unicode="&#xeb;" horiz-adv-x="1196" d="M125 416q0 51 8 90q37 207 203 351t364 144q178 2 293 -118q115 -115 115 -295q0 -37 -2 -56v-4l-2 -4q-8 -18 -25 -18h-893q-2 -4 -2 -10q-8 -33 -8 -80q0 -158 100.5 -260.5t258.5 -102.5q111 0 217 55.5t182 149.5q14 18 37 4q18 -18 4 -37q-182 -221 -440 -225 q-180 0 -295 121q-115 115 -115 295zM199 557h856q2 10 2 31q0 158 -99.5 260t-257.5 102q-164 2 -307 -111.5t-194 -281.5zM520 1304.5q4 28.5 25.5 49t50.5 20.5t47.5 -20.5t13.5 -48.5q-4 -31 -25.5 -50.5t-50 -19.5t-47 20.5t-14.5 49zM893 1304.5q4 28.5 25.5 49 t50 20.5t47 -20.5t16.5 -48.5q-4 -29 -26.5 -49.5t-51 -20.5t-47 20.5t-14.5 49z" />
<glyph unicode="&#xec;" horiz-adv-x="509" d="M6 31l166 950q8 27 31 18q27 -4 20 -28l-166 -951q-4 -20 -24 -20h-6q-25 8 -21 31zM74 1450q0 2 2 11t9 14.5t26 5.5q33 0 57 -37l127 -191q8 -12 8 -22q0 -14 -14 -6q-33 12 -49 30l-146 158q-26 27 -20 37z" />
<glyph unicode="&#xed;" horiz-adv-x="509" d="M207 31l166 950q8 27 30 18q27 -4 21 -28l-166 -951q-4 -20 -25 -20h-6q-24 8 -20 31zM291 1231q0 10 8 22l127 191q25 37 57 37q18 0 25.5 -5.5t9.5 -14.5t2 -11q6 -10 -20 -37l-146 -158q-16 -18 -49 -30q-14 -8 -14 6z" />
<glyph unicode="&#xee;" horiz-adv-x="509" d="M8 1233q2 10 17 24l186 181q41 37 65 37h17q29 0 49 -37l109 -181q8 -12 4 -24q-2 -8 -13 -6q-8 2 -14 2q-14 0 -28.5 14t-18.5 25l-111 153l-174 -155q-45 -37 -59 -37q-29 0 -29 4zM33 31l166 950q8 27 30 18q27 -4 21 -28l-166 -951q-4 -20 -25 -20h-6q-24 8 -20 31z " />
<glyph unicode="&#xef;" horiz-adv-x="509" d="M-37 1304.5q4 28.5 25.5 49t50.5 20.5t47 -20.5t14 -48.5q-4 -31 -25.5 -50.5t-50 -19.5t-47 20.5t-14.5 49zM16 31l166 950q8 27 31 18q27 -4 20 -28l-165 -951q-4 -20 -25 -20h-6q-25 8 -21 31zM336 1304.5q4 28.5 25.5 49t50 20.5t47 -20.5t16.5 -48.5 q-4 -29 -26.5 -49.5t-51 -20.5t-47 20.5t-14.5 49z" />
<glyph unicode="&#xf1;" horiz-adv-x="1255" d="M193 27l102 577v2l65 375q4 25 31 20q25 -4 21 -30l-31 -168q70 90 172 144t215 54q143 0 246 -96q94 -94 94 -241q0 -31 -6 -68l-98 -580q-4 -20 -29 -20h-4q-25 4 -21 31l103 577q6 31 6 60q0 125 -82 204.5t-209 81.5q-150 0 -273.5 -104.5t-150.5 -249.5l-100 -580 q0 -4 -4 -8q0 -2 -2 -2q0 -4 -5 -4l-2 -2q-2 -2 -6 -2q-2 -2 -4 -2h-4h-4q-24 4 -20 31zM586 1235q0 4 8 29q14 47 63.5 84.5t92.5 37.5q41 0 135 -38.5t127 -38.5q63 0 102 88q0 2 4 13t9.5 16.5t13.5 5.5q37 0 37 -35q0 -12 -4 -25q-45 -139 -162 -139q-37 0 -131.5 40 t-130.5 40q-63 0 -99 -80q-12 -25 -33 -25q-32 0 -32 27z" />
<glyph unicode="&#xf2;" horiz-adv-x="1310" d="M119 414q0 51 8 92q37 207 198.5 352.5t358.5 145.5q174 0 287 -119q111 -117 110 -295q0 -51 -8 -92l-24 4l24 -4q-37 -207 -198.5 -351.5t-358.5 -146.5q-174 0 -287 119q-110 121 -110 295zM170 414q0 -158 96 -259.5t250 -103.5q174 0 323.5 134t182.5 321q8 39 8 84 q-2 158 -98 260t-248 102h-2q-174 0 -322.5 -134t-181.5 -320q-8 -39 -8 -84zM715 1450q0 2 2 11t9 14.5t26 5.5q33 0 57 -37l127 -191q8 -12 8 -22q0 -14 -14 -6q-33 12 -49 30l-146 158q-26 27 -20 37z" />
<glyph unicode="&#xf3;" horiz-adv-x="1310" d="M119 414q0 51 8 92q37 207 198.5 352.5t358.5 145.5q174 0 287 -119q111 -117 110 -295q0 -51 -8 -92l-24 4l24 -4q-37 -207 -198.5 -351.5t-358.5 -146.5q-174 0 -287 119q-110 121 -110 295zM170 414q0 -158 96 -259.5t250 -103.5q174 0 323.5 134t182.5 321q8 39 8 84 q-2 158 -98 260t-248 102h-2q-174 0 -322.5 -134t-181.5 -320q-8 -39 -8 -84zM711 1231q0 10 8 22l127 191q25 37 57 37q18 0 25.5 -5.5t9.5 -14.5t2 -11q6 -10 -20 -37l-146 -158q-16 -18 -49 -30q-14 -8 -14 6z" />
<glyph unicode="&#xf4;" horiz-adv-x="1310" d="M119 414q0 51 8 92q37 207 198.5 352.5t358.5 145.5q174 0 287 -119q111 -117 110 -295q0 -51 -8 -92l-24 4l24 -4q-37 -207 -198.5 -351.5t-358.5 -146.5q-174 0 -287 119q-110 121 -110 295zM170 414q0 -158 96 -259.5t250 -103.5q174 0 323.5 134t182.5 321q8 39 8 84 q-2 158 -98 260t-248 102h-2q-174 0 -322.5 -134t-181.5 -320q-8 -39 -8 -84zM639 1233q2 10 16 24l187 181q41 37 65 37h17q29 0 49 -37l108 -181q8 -12 4 -24q-2 -8 -12 -6q-8 2 -14 2q-14 0 -28.5 14t-18.5 25l-111 153l-174 -155q-45 -37 -59 -37q-29 0 -29 4z" />
<glyph unicode="&#xf5;" horiz-adv-x="1310" d="M119 414q0 51 8 92q37 207 198.5 352.5t358.5 145.5q174 0 287 -119q111 -117 110 -295q0 -51 -8 -92l-24 4l24 -4q-37 -207 -198.5 -351.5t-358.5 -146.5q-174 0 -287 119q-110 121 -110 295zM170 414q0 -158 96 -259.5t250 -103.5q174 0 323.5 134t182.5 321q8 39 8 84 q-2 158 -98 260t-248 102h-2q-174 0 -322.5 -134t-181.5 -320q-8 -39 -8 -84zM541 1235q0 4 8 29q14 47 63.5 84.5t92.5 37.5q41 0 135 -38.5t127 -38.5q63 0 102 88q0 2 4 13t9 16.5t14 5.5q37 0 37 -35q0 -12 -5 -25q-45 -139 -161 -139q-37 0 -131.5 40t-130.5 40 q-63 0 -99 -80q-12 -25 -33 -25q-32 0 -32 27z" />
<glyph unicode="&#xf6;" horiz-adv-x="1310" d="M119 414q0 51 8 92q37 207 198.5 352.5t358.5 145.5q174 0 287 -119q111 -117 110 -295q0 -51 -8 -92l-24 4l24 -4q-37 -207 -198.5 -351.5t-358.5 -146.5q-174 0 -287 119q-110 121 -110 295zM170 414q0 -158 96 -259.5t250 -103.5q174 0 323.5 134t182.5 321q8 39 8 84 q-2 158 -98 260t-248 102h-2q-174 0 -322.5 -134t-181.5 -320q-8 -39 -8 -84zM541 1304.5q4 28.5 25.5 49t50 20.5t47 -20.5t14.5 -48.5q-4 -31 -25.5 -50.5t-50.5 -19.5t-47 20.5t-14 49zM913.5 1304.5q4.5 28.5 26 49t50 20.5t47 -20.5t16.5 -48.5q-4 -29 -26.5 -49.5 t-51.5 -20.5t-47.5 20.5t-14 49z" />
<glyph unicode="&#xf7;" horiz-adv-x="1269" d="M139 721q-6 -20 3.5 -34.5t29.5 -14.5h909q20 0 40 14t26 35q8 20 -2 34.5t-31 14.5h-909q-20 0 -39 -14.5t-27 -34.5zM424 309l12 35q10 33 42 57.5t67 24.5q33 0 49 -23.5t6 -58.5l-12 -35q-12 -35 -45 -58.5t-66 -23.5q-35 0 -50 24.5t-3 57.5zM688 1098l12 35 q10 33 42 57t67 24q33 0 49 -23.5t6 -57.5l-12 -35q-10 -33 -42 -57.5t-67 -24.5q-33 0 -49 23.5t-6 58.5z" />
<glyph unicode="&#xf8;" horiz-adv-x="1280" d="M143 414q0 51 9 92q37 207 198.5 352.5t358.5 145.5q174 0 286 -119q111 -117 111 -295q0 -51 -8 -92l-25 4l25 -4q-37 -207 -199 -351.5t-358 -146.5q-174 0 -287 119q-111 121 -111 295zM170 8q-18 18 2 39l858 944q6 6 16.5 7t18.5 -7q20 -16 4 -35l-864 -946 q-6 -14 -27 -6q-2 0 -4 2t-4 2zM195 414q0 -158 96 -259.5t250 -103.5q174 0 323.5 134t182.5 321q8 39 8 84q-2 158 -98.5 260t-247.5 102h-2q-174 0 -322.5 -134t-181.5 -320q-8 -39 -8 -84z" />
<glyph unicode="&#xf9;" horiz-adv-x="1255" d="M170 336q0 39 8 72l101 571q4 27 30 22q25 -8 21 -30l-103 -572q-4 -23 -4 -63q0 -125 81 -205t210 -80q145 -2 268 103.5t148 253.5l102 571q4 27 29 22q27 -8 22 -30l-102 -572q-29 -166 -165 -282.5t-302 -116.5q-154 0 -246 96q-98 99 -98 240zM600 1450q0 2 2 11 t9 14.5t26 5.5q33 0 57 -37l127 -191q8 -12 8 -22q0 -14 -14 -6q-33 12 -49 30l-145 158q-27 27 -21 37z" />
<glyph unicode="&#xfa;" horiz-adv-x="1255" d="M170 336q0 39 8 72l101 571q4 27 30 22q25 -8 21 -30l-103 -572q-4 -23 -4 -63q0 -125 81 -205t210 -80q145 -2 268 103.5t148 253.5l102 571q4 27 29 22q27 -8 22 -30l-102 -572q-29 -166 -165 -282.5t-302 -116.5q-154 0 -246 96q-98 99 -98 240zM672 1231q0 10 8 22 l127 191q25 37 57 37q18 0 25.5 -5.5t9.5 -14.5t2 -11q6 -10 -20 -37l-146 -158q-16 -18 -49 -30q-14 -8 -14 6z" />
<glyph unicode="&#xfb;" horiz-adv-x="1255" d="M170 336q0 39 8 72l101 571q4 27 30 22q25 -8 21 -30l-103 -572q-4 -23 -4 -63q0 -125 81 -205t210 -80q145 -2 268 103.5t148 253.5l102 571q4 27 29 22q27 -8 22 -30l-102 -572q-29 -166 -165 -282.5t-302 -116.5q-154 0 -246 96q-98 99 -98 240zM526 1233q2 10 17 24 l186 181q41 37 66 37h16q29 0 49 -37l109 -181q8 -12 4 -24q-2 -8 -12 -6q-8 2 -15 2q-14 0 -28.5 14t-18.5 25l-111 153l-174 -155q-45 -37 -59 -37q-29 0 -29 4z" />
<glyph unicode="&#xfc;" horiz-adv-x="1255" d="M170 336q0 39 8 72l101 571q4 27 30 22q25 -8 21 -30l-103 -572q-4 -23 -4 -63q0 -125 81 -205t210 -80q145 -2 268 103.5t148 253.5l102 571q4 27 29 22q27 -8 22 -30l-102 -572q-29 -166 -165 -282.5t-302 -116.5q-154 0 -246 96q-98 99 -98 240zM524 1304.5 q4 28.5 25.5 49t50.5 20.5t47.5 -20.5t14.5 -48.5q-4 -31 -26 -50.5t-50.5 -19.5t-47 20.5t-14.5 49zM897 1304.5q4 28.5 25.5 49t50 20.5t47 -20.5t16.5 -48.5q-4 -29 -26.5 -49.5t-51 -20.5t-47 20.5t-14.5 49z" />
<glyph unicode="&#xfd;" horiz-adv-x="1204" d="M112.5 -331.5q10.5 22.5 34.5 9.5q78 -43 177 -43q176 -2 323.5 124t175.5 302l27 142q-68 -92 -169 -146.5t-214 -56.5q-145 0 -244 98q-98 94 -98 240q0 37 8 70l100 573q6 25 31 20.5t21 -28.5l-101 -574q-6 -35 -6 -61q0 -125 81 -205t208 -80q145 -2 269 103.5 t149 251.5l55 305l47 268q6 25 29 20q10 -2 17 -11t3 -17l-100 -574l-62 -346q-35 -197 -194.5 -333t-355.5 -138q-106 0 -201 49q-21 15 -10.5 37.5zM588 1231q0 10 8 22l127 191q25 37 57 37q18 0 25.5 -5.5t9.5 -14.5t2 -11q6 -10 -20 -37l-146 -158q-16 -18 -49 -30 q-14 -8 -14 6z" />
<glyph unicode="&#xff;" horiz-adv-x="1204" d="M112.5 -331.5q10.5 22.5 34.5 9.5q78 -43 177 -43q176 -2 323.5 124t175.5 302l27 142q-68 -92 -169 -146.5t-214 -56.5q-145 0 -244 98q-98 94 -98 240q0 37 8 70l100 573q6 25 31 20.5t21 -28.5l-101 -574q-6 -35 -6 -61q0 -125 81 -205t208 -80q145 -2 269 103.5 t149 251.5l55 305l47 268q6 25 29 20q10 -2 17 -11t3 -17l-100 -574l-62 -346q-35 -197 -194.5 -333t-355.5 -138q-106 0 -201 49q-21 15 -10.5 37.5zM450.5 1304.5q4.5 28.5 26 49t50 20.5t47 -20.5t14.5 -48.5q-4 -31 -25.5 -50.5t-50.5 -19.5t-47.5 20.5t-14 49z M823 1304.5q4 28.5 25.5 49t50.5 20.5t47.5 -20.5t16.5 -48.5q-4 -29 -27 -49.5t-51.5 -20.5t-47 20.5t-14.5 49z" />
<glyph unicode="&#x152;" horiz-adv-x="2537" d="M133 743q55 307 297 523.5t533 216.5q225 0 379.5 -137.5t191.5 -356.5l80 447q4 23 28 26h764q25 0 21 -26q-6 -25 -29 -25h-737l-113 -639h650q23 0 18 -24q-4 -27 -29 -27h-649l-113 -641h738q25 0 20 -25q-4 -27 -31 -26h-763q-23 0 -19 26l78 441 q-115 -219 -318.5 -356.5t-429.5 -137.5q-291 0 -455.5 216t-111.5 525zM188 743q-51 -283 102.5 -482.5t420.5 -203.5q264 4 488 204t276 482q49 285 -104.5 486t-418 201t-489 -201t-275.5 -486z" />
<glyph unicode="&#x153;" horiz-adv-x="2160" d="M119 414q0 51 8 92q37 207 198.5 352.5t358.5 145.5q174 0 287 -119q88 -94 106 -236q72 156 216.5 255.5t308.5 99.5q178 2 292 -119q115 -115 115 -295q0 -37 -2 -55q0 -2 -1 -4.5t-1 -4.5q-8 -18 -25 -18h-895q-2 -4 -2 -10q-8 -35 -8 -82q0 -158 100.5 -260.5 t258.5 -102.5q113 0 219 55.5t182 149.5q14 18 37 4q18 -18 4 -37q-182 -221 -442 -225q-180 0 -295 121q-94 92 -111 233q-72 -156 -212 -254t-300 -100q-174 0 -287 119q-110 121 -110 295zM170 414q0 -158 96 -259.5t250 -103.5q174 0 323.5 134t182.5 321q8 39 8 84 q-2 158 -98 260t-248 102h-2q-174 0 -322.5 -134t-181.5 -320q-8 -39 -8 -84zM1098 559h858q2 10 2 31q0 158 -99.5 260t-256.5 102q-164 2 -308.5 -111.5t-195.5 -281.5z" />
<glyph unicode="&#x160;" horiz-adv-x="1310" d="M141 203q219 -205 484 -205q213 0 383 110.5t200 272.5q29 158 -104 254q-115 86 -340 129l-4 2q-203 39 -299 113q-102 78 -82 196q20 125 162 217q145 94 323 94q80 0 157 -27.5t120 -55t108 -76.5q16 -10 35 8q16 20 -2 31q-66 49 -112 78.5t-129 58.5t-169 29 q-197 0 -355.5 -103.5t-184.5 -253.5q-27 -141 98 -235q100 -78 313 -119l5 -2q213 -39 323 -121q113 -88 92 -217q-25 -137 -178 -236q-154 -100 -352 -100q-135 0 -255 57.5t-202 137.5q-16 12 -33 -4q-16 -19 -2 -33zM784 1802q2 8 13 6q8 -2 14 -2q14 0 28.5 -14 t18.5 -25l111 -153l174 155q45 37 59 37q29 0 29 -4q-2 -10 -17 -24l-186 -181q-41 -37 -65 -36h-17q-29 0 -49 36l-109 181q-8 12 -4 24z" />
<glyph unicode="&#x161;" horiz-adv-x="1017" d="M115 145q152 -143 338 -143q147 0 268 79t141 195q20 106 -74 181q-74 55 -237 90h-4q-135 27 -199 76q-68 55 -53 127q12 80 106 141q96 61 213 61q53 0 104.5 -18.5t81 -36.5t74.5 -51q18 -14 37 8q18 18 -2 35l-79 54q-30 19 -88 40t-117 21q-137 0 -249 -73 t-132 -181q-20 -104 69 -170q70 -53 217 -84h2q150 -29 220 -82q74 -55 59 -138q-16 -92 -117 -155q-100 -68 -233 -68q-172 0 -307 131q-14 18 -37 -4q-20 -21 -2 -35zM518 1358q2 8 12 6q8 -2 15 -2q14 0 28.5 -15.5t18.5 -23.5l110 -154l175 156q45 37 59 37q29 0 29 -4 q-2 -10 -17 -25l-186 -180q-41 -37 -66 -37h-16q-29 0 -49 37l-109 180q-8 13 -4 25z" />
<glyph unicode="&#x178;" horiz-adv-x="1466" d="M119 1391q-14 23 10 34q25 16 35 -10l368 -663l609 669q18 18 37 2q18 -18 2 -37l-627 -692h-2l-119 -678q-4 -20 -24 -20h-7q-25 4 -20 31l119 675zM491.5 1714.5q4.5 28.5 26 49t50 20.5t47 -20.5t14.5 -49.5q-4 -31 -25.5 -50t-50.5 -19t-47.5 20.5t-14 49z M864 1714.5q4 28.5 25.5 49t50.5 20.5t47.5 -20.5t16.5 -49.5q-4 -29 -27 -49t-51.5 -20t-47 20.5t-14.5 49z" />
<glyph unicode="&#x192;" horiz-adv-x="1089" d="M115 33q0 14 10 20t25.5 7t35.5 3q76 8 110 50.5t50 134.5l100 557h-184q-47 0 -47 26q0 29 47 29h201l53 297q29 152 99.5 219.5t193.5 67.5q72 0 121 -12q41 -10 41 -37q0 -12 -6.5 -16.5t-16.5 -4.5h-22q31 0 -2 4l-105 8q-90 12 -152.5 -54t-82.5 -181l-52 -291h279 q47 0 47 -29q0 -27 -47 -26h-295l-102 -563q-27 -129 -78 -186.5t-143 -57.5q-78 0 -78 35z" />
<glyph unicode="&#x2c6;" d="M291 1233q2 10 16 24l187 181q41 37 65 37h16q29 0 50 -37l108 -181q8 -12 4 -24q-2 -8 -12 -6q-8 2 -14 2q-14 0 -28.5 14t-18.5 25l-111 153l-174 -155q-45 -37 -60 -37q-28 0 -28 4z" />
<glyph unicode="&#x2dc;" d="M215 1235q0 4 8 29q14 47 63.5 84.5t92.5 37.5q39 0 133 -38.5t129 -38.5q63 0 102 88q0 2 4.5 13t9.5 16.5t13 5.5q37 0 37 -35q0 -12 -4 -25q-45 -139 -162 -139q-37 0 -131 40t-131 40q-63 0 -98 -80q-12 -25 -33 -25q-33 0 -33 27z" />
<glyph unicode="&#x2000;" horiz-adv-x="944" />
<glyph unicode="&#x2001;" horiz-adv-x="1890" />
<glyph unicode="&#x2002;" horiz-adv-x="944" />
<glyph unicode="&#x2003;" horiz-adv-x="1890" />
<glyph unicode="&#x2004;" horiz-adv-x="628" />
<glyph unicode="&#x2005;" horiz-adv-x="471" />
<glyph unicode="&#x2006;" horiz-adv-x="313" />
<glyph unicode="&#x2007;" horiz-adv-x="313" />
<glyph unicode="&#x2008;" horiz-adv-x="235" />
<glyph unicode="&#x2009;" horiz-adv-x="376" />
<glyph unicode="&#x200a;" horiz-adv-x="104" />
<glyph unicode="&#x2010;" horiz-adv-x="835" d="M135 715q0 23 21 22h467q18 0 18 -22q0 -18 -18 -19h-467q-21 1 -21 19z" />
<glyph unicode="&#x2011;" horiz-adv-x="835" d="M135 715q0 23 21 22h467q18 0 18 -22q0 -18 -18 -19h-467q-21 1 -21 19z" />
<glyph unicode="&#x2012;" horiz-adv-x="835" d="M135 715q0 23 21 22h467q18 0 18 -22q0 -18 -18 -19h-467q-21 1 -21 19z" />
<glyph unicode="&#x2013;" horiz-adv-x="1353" d="M135 715q0 23 42 22h945q37 0 37 -22q0 -18 -37 -19h-945q-42 1 -42 19z" />
<glyph unicode="&#x2014;" horiz-adv-x="2377" d="M135 715q0 23 83 22h1891q75 0 74 -22q0 -18 -74 -19h-1891q-83 1 -83 19z" />
<glyph unicode="&#x2018;" horiz-adv-x="471" d="M158 1370v2v6v6v7l2 4q10 37 47 37q23 0 38 -15.5t15 -38.5q0 -20 -15.5 -34.5t-37.5 -14.5h-12q14 -33 49 -41q16 -8 10 -18q0 -12 -12 -13h-6q-78 21 -78 113z" />
<glyph unicode="&#x2019;" horiz-adv-x="471" d="M121 1380.5q0 20.5 15.5 37t37.5 16.5q37 0 47 -37q0 -4 2 -4v-21q0 -92 -78 -112h-6q-12 0 -12 12q-6 10 10 18q37 8 47 41h-10q-23 0 -38 14.5t-15 35z" />
<glyph unicode="&#x201a;" horiz-adv-x="471" />
<glyph unicode="&#x201c;" horiz-adv-x="839" d="M166 1112l14 51q37 158 107 213q80 66 121 66q31 0 24 -31q-2 -14 -22 -27q-117 -55 -136 -157q53 -14 39 -72l-12 -43q-6 -29 -30.5 -48.5t-51.5 -19.5q-29 0 -44 20.5t-9 47.5zM535 1112l14 51q37 158 106 213q80 66 121 66q31 0 25 -31q-2 -14 -23 -27 q-117 -55 -135 -157q53 -14 39 -72l-12 -43q-6 -29 -31 -48.5t-51 -19.5q-29 0 -44 20.5t-9 47.5z" />
<glyph unicode="&#x201d;" horiz-adv-x="839" d="M125 1075q2 14 22 27q117 55 136 158q-53 14 -39 71l12 43q6 29 30.5 48.5t51.5 19.5q29 0 44 -20.5t9 -47.5l-14 -51q-37 -158 -107 -213q-80 -66 -120 -66q-31 0 -25 31zM494 1075q2 14 22 27q117 55 135 158q-53 14 -39 71l13 43q6 29 30.5 48.5t51.5 19.5 q29 0 44 -20.5t9 -47.5l-15 -51q-37 -158 -106 -213q-80 -66 -121 -66q-30 0 -24 31z" />
<glyph unicode="&#x201e;" horiz-adv-x="839" d="M115 -184q8 18 24 26q121 59 137 158q-53 16 -36 72l10 43q8 29 32.5 48t53.5 19t43 -19.5t6 -47.5l-12 -52q-43 -158 -111 -213q-84 -66 -125 -65q-28 0 -22 31zM483 -184q8 18 25 26q121 59 137 158q-53 16 -37 72l10 43q8 29 34 48t53 19q29 0 43 -20.5t6 -46.5 l-13 -52q-43 -158 -110 -213q-84 -66 -125 -65q-29 0 -23 31z" />
<glyph unicode="&#x2026;" horiz-adv-x="1392" d="M168 57.5q0 20.5 15.5 36t37.5 15.5q20 0 34.5 -15.5t14.5 -36t-14 -36t-34.5 -15.5t-37 15.5t-16.5 36zM487 57.5q0 20.5 15.5 36t38.5 15.5q20 0 34.5 -15.5t14.5 -36t-14.5 -36t-35 -15.5t-37 15.5t-16.5 36zM807 57.5q0 20.5 15.5 36t37.5 15.5q20 0 34.5 -15.5 t14.5 -36t-14 -36t-34.5 -15.5t-37 15.5t-16.5 36z" />
<glyph unicode="&#x202f;" horiz-adv-x="376" />
<glyph unicode="&#x2039;" horiz-adv-x="636" d="M115 514q6 18 28 45l346 367q6 6 20.5 8t26 -3t11.5 -18q-2 -20 -15 -32l-354 -369l225 -365q12 -16 8.5 -38.5t-28.5 -22.5q-29 0 -39 18l-217 365q-14 27 -12 45z" />
<glyph unicode="&#x203a;" horiz-adv-x="636" d="M139 109q4 20 15 32l354 369l-225 364q-12 16 -8 39t28 23q29 0 39 -18l217 -365q14 -27 12 -45q-6 -18 -28 -45l-346 -367q-6 -6 -20.5 -8t-26 3.5t-11.5 17.5z" />
<glyph unicode="&#x205f;" horiz-adv-x="471" />
<glyph unicode="&#x2122;" horiz-adv-x="1413" d="M45 1417q0 12 10 13h426q10 0 11 -13q0 -10 -11 -10h-205l-100 -580q-4 -8 -12 -8q-10 0 -10 12l100 576h-199q-10 0 -10 10zM547 834l104 587q4 8 13 9h2q6 0 8 -7l176 -323l291 325q4 4 10 5h2q10 0 10 -13l-104 -588q-4 -10 -10 -10h-5q-8 2 -8 15l99 552l-277 -309 q-4 -4 -8 -4h-2h-2q-8 0 -8 6l-168 310l-101 -560q-4 -10 -10 -10h-2q-10 5 -10 15z" />
<glyph unicode="&#xe000;" horiz-adv-x="1000" d="M0 1000h1000v-1000h-1000v1000z" />
</font>
</defs>
</svg>
